<svg xmlns="http://www.w3.org/2000/svg" xmlns:xlink="http://www.w3.org/1999/xlink" width="450" zoomAndPan="magnify" viewBox="0 0 337.5 89.999999" height="120" preserveAspectRatio="xMidYMid meet" version="1.0"><defs><g/><clipPath id="2e68077a3c"><path d="M 0 1 L 337 1 L 337 2 L 0 2 Z M 0 1 " clip-rule="nonzero"/></clipPath><clipPath id="2b787f0530"><path d="M 0 1 L 2 1 L 2 89.933594 L 0 89.933594 Z M 0 1 " clip-rule="nonzero"/></clipPath><clipPath id="668fe436ab"><path d="M 335 1 L 337 1 L 337 89.933594 L 335 89.933594 Z M 335 1 " clip-rule="nonzero"/></clipPath><clipPath id="8f4e824fb8"><path d="M 1 88 L 76 88 L 76 89.933594 L 1 89.933594 Z M 1 88 " clip-rule="nonzero"/></clipPath><clipPath id="459e69830c"><path d="M 261 88 L 337 88 L 337 89.933594 L 261 89.933594 Z M 261 88 " clip-rule="nonzero"/></clipPath><clipPath id="2cc61ee86f"><path d="M 215.027344 54 L 255 54 L 255 81 L 215.027344 81 Z M 215.027344 54 " clip-rule="nonzero"/></clipPath><clipPath id="fb7e700735"><path d="M 215.027344 54 L 256 54 L 256 81 L 215.027344 81 Z M 215.027344 54 " clip-rule="nonzero"/></clipPath><clipPath id="0856ad2cd8"><path d="M 242 31.5 L 263.777344 31.5 L 263.777344 68 L 242 68 Z M 242 31.5 " clip-rule="nonzero"/></clipPath></defs><g clip-path="url(#2e68077a3c)"><path stroke-linecap="butt" transform="matrix(0.75, 0, 0, 0.75, 0.75, 1.18025)" fill="none" stroke-linejoin="miter" d="M 0.000000115039 0.49925 L 448.000052 0.49925 " stroke="#000000" stroke-width="1" stroke-opacity="1" stroke-miterlimit="4"/></g><g clip-path="url(#2b787f0530)"><path stroke-linecap="butt" transform="matrix(0.000000000000000046, -0.75, 0.75, 0.000000000000000046, 0.744341, 89.310899)" fill="none" stroke-linejoin="miter" d="M -0.0021344 0.502337 L 117.013504 0.502337 " stroke="#000000" stroke-width="1" stroke-opacity="1" stroke-miterlimit="4"/></g><g clip-path="url(#668fe436ab)"><path stroke-linecap="butt" transform="matrix(0.000000000000000046, 0.753219, -0.75, 0.000000000000000046, 336.744317, 1.56091)" fill="none" stroke-linejoin="miter" d="M 0.00211057 0.497632 L 116.517678 0.497632 " stroke="#000000" stroke-width="1" stroke-opacity="1" stroke-miterlimit="4"/></g><g clip-path="url(#8f4e824fb8)"><path stroke-linecap="butt" transform="matrix(0.750239, 0, 0, 0.75, 1.5, 88.566557)" fill="none" stroke-linejoin="miter" d="M 0.000000261948 0.499799 L 97.984384 0.499799 " stroke="#000000" stroke-width="1" stroke-opacity="1" stroke-miterlimit="4"/></g><g clip-path="url(#459e69830c)"><path stroke-linecap="butt" transform="matrix(0.750117, 0, 0, 0.75, 261.378582, 88.566557)" fill="none" stroke-linejoin="miter" d="M 0.000431781 0.499799 L 99.995236 0.499799 " stroke="#000000" stroke-width="1" stroke-opacity="1" stroke-miterlimit="4"/></g><g clip-path="url(#2cc61ee86f)"><path fill="#000000" d="M 254.695312 54.628906 C 253.792969 53.257812 246.488281 57.105469 242.628906 61.453125 C 238.074219 64.539062 220.214844 76.648438 215.035156 80.960938 C 221.015625 77.867188 239.105469 66.109375 243.714844 63.109375 C 249.210938 61.25 255.597656 56.003906 254.695312 54.628906 Z M 253.515625 55.347656 C 253.757812 55.71875 251.765625 57.472656 249.070312 59.261719 C 246.375 61.050781 243.992188 62.203125 243.75 61.832031 C 243.507812 61.464844 245.496094 59.707031 248.191406 57.917969 C 250.886719 56.128906 253.273438 54.980469 253.515625 55.347656 Z M 253.515625 55.347656 " fill-opacity="1" fill-rule="evenodd"/></g><g clip-path="url(#fb7e700735)"><path stroke-linecap="butt" transform="matrix(0.117159, 0, 0, 0.11778, 206.11159, 29.748225)" fill="none" stroke-linejoin="miter" d="M 414.68081 211.246527 C 406.978958 199.605415 344.630634 232.273493 311.68938 269.186762 C 272.813365 295.387554 120.376712 398.200792 76.166082 434.815571 C 127.211689 408.548447 281.615482 308.72011 320.958275 283.248959 C 367.869555 267.462152 422.382662 222.920805 414.68081 211.246527 Z M 404.611723 217.34899 C 406.678886 220.499719 389.674798 235.391055 366.669266 250.580882 C 343.663734 265.770709 323.325511 275.554549 321.258347 272.403821 C 319.191183 269.286258 336.161931 254.361756 359.167462 239.171929 C 382.172994 223.982102 402.544559 214.231428 404.611723 217.34899 Z M 404.611723 217.34899 " stroke="#000000" stroke-width="0.348" stroke-opacity="1" stroke-miterlimit="4"/></g><g clip-path="url(#0856ad2cd8)"><path fill="#000000" d="M 248.105469 59.808594 C 248.25 60.023438 246.585938 57.640625 248.679688 60.648438 C 250.773438 63.652344 252.570312 65.339844 256.746094 67.246094 C 257.027344 67.375 257.355469 67.25 257.480469 66.96875 C 257.609375 66.691406 257.484375 66.359375 257.207031 66.230469 C 253.15625 64.382812 251.605469 62.9375 249.609375 60.046875 C 247.613281 57.160156 249.183594 59.417969 249.039062 59.203125 C 248.894531 58.984375 248.746094 58.761719 248.59375 58.527344 C 248.460938 58.320312 248.3125 58.09375 248.164062 57.859375 C 248.132812 57.878906 248.105469 57.898438 248.074219 57.917969 C 247.789062 58.109375 247.511719 58.296875 247.246094 58.484375 C 247.390625 58.714844 247.535156 58.9375 247.667969 59.140625 C 247.816406 59.371094 247.964844 59.589844 248.109375 59.808594 Z M 253.988281 31.515625 C 253.914062 31.515625 253.84375 31.515625 253.769531 31.519531 C 253.605469 31.523438 253.445312 31.535156 253.289062 31.554688 C 252.058594 31.699219 251.148438 32.289062 250.726562 33.160156 C 250.304688 34.035156 250.355469 35.089844 250.707031 36.167969 C 251.058594 37.246094 251.714844 38.371094 252.625 39.4375 C 252.824219 39.671875 253.171875 39.699219 253.40625 39.5 C 253.636719 39.296875 253.664062 38.945312 253.46875 38.710938 C 252.636719 37.738281 252.054688 36.722656 251.761719 35.820312 C 251.46875 34.921875 251.476562 34.160156 251.722656 33.648438 C 251.96875 33.136719 252.445312 32.773438 253.417969 32.660156 C 254.394531 32.546875 255.839844 32.742188 257.773438 33.429688 C 261.511719 34.75 262.617188 37.871094 262.316406 40.46875 C 262.167969 41.769531 261.640625 42.914062 260.945312 43.582031 C 260.25 44.25 259.453125 44.488281 258.433594 44.074219 C 256.097656 43.117188 253.988281 41.84375 251.769531 41.179688 C 249.546875 40.515625 247.171875 40.527344 244.59375 42.160156 C 243.234375 43.015625 242.570312 44.367188 242.433594 45.84375 C 242.296875 47.320312 242.636719 48.945312 243.199219 50.574219 C 244.085938 53.152344 245.546875 55.753906 246.765625 57.71875 C 247.070312 57.503906 247.375 57.292969 247.683594 57.089844 C 246.492188 55.160156 245.078125 52.628906 244.246094 50.207031 C 243.714844 48.667969 243.425781 47.175781 243.539062 45.949219 C 243.652344 44.71875 244.117188 43.777344 245.183594 43.101562 C 247.519531 41.628906 249.425781 41.644531 251.453125 42.25 C 253.480469 42.851562 255.582031 44.109375 258.015625 45.105469 C 259.402344 45.667969 260.765625 45.289062 261.710938 44.386719 C 262.652344 43.484375 263.246094 42.113281 263.417969 40.597656 C 263.769531 37.566406 262.339844 33.859375 258.140625 32.375 C 256.472656 31.785156 255.105469 31.515625 253.988281 31.515625 Z M 253.988281 31.515625 " fill-opacity="1" fill-rule="evenodd"/></g><g fill="#000000" fill-opacity="1"><g transform="translate(92.344141, 38.383083)"><g><path d="M 19.125 -2.375 C 19.414062 -1.925781 19.71875 -1.5625 20.03125 -1.28125 C 20.34375 -1.007812 20.742188 -0.78125 21.234375 -0.59375 L 21.234375 0 C 19.867188 -0.0625 18.34375 -0.09375 16.65625 -0.09375 C 15.363281 -0.09375 14.125 -0.0625 12.9375 0 L 12.9375 -0.59375 C 13.476562 -0.625 13.867188 -0.675781 14.109375 -0.75 C 14.359375 -0.832031 14.484375 -0.972656 14.484375 -1.171875 C 14.484375 -1.328125 14.378906 -1.570312 14.171875 -1.90625 L 9.90625 -8.796875 C 9.519531 -9.421875 9.191406 -9.835938 8.921875 -10.046875 C 8.660156 -10.265625 8.304688 -10.394531 7.859375 -10.4375 L 7.859375 -3.109375 C 7.859375 -2.367188 7.910156 -1.832031 8.015625 -1.5 C 8.128906 -1.164062 8.332031 -0.9375 8.625 -0.8125 C 8.914062 -0.695312 9.394531 -0.625 10.0625 -0.59375 L 10.0625 0 C 9 -0.0625 7.519531 -0.09375 5.625 -0.09375 C 3.539062 -0.09375 2 -0.0625 1 0 L 1 -0.59375 C 1.644531 -0.625 2.117188 -0.695312 2.421875 -0.8125 C 2.722656 -0.9375 2.925781 -1.164062 3.03125 -1.5 C 3.144531 -1.832031 3.203125 -2.367188 3.203125 -3.109375 L 3.203125 -17.65625 C 3.203125 -18.394531 3.144531 -18.929688 3.03125 -19.265625 C 2.925781 -19.597656 2.722656 -19.820312 2.421875 -19.9375 C 2.117188 -20.0625 1.644531 -20.140625 1 -20.171875 L 1 -20.765625 C 2 -20.703125 3.539062 -20.671875 5.625 -20.671875 C 7.519531 -20.671875 9 -20.703125 10.0625 -20.765625 L 10.0625 -20.171875 C 9.394531 -20.140625 8.914062 -20.0625 8.625 -19.9375 C 8.332031 -19.820312 8.128906 -19.597656 8.015625 -19.265625 C 7.910156 -18.929688 7.859375 -18.394531 7.859375 -17.65625 L 7.859375 -11.0625 C 8.640625 -11.09375 9.351562 -11.320312 10 -11.75 C 10.644531 -12.1875 11.378906 -12.875 12.203125 -13.8125 L 13.9375 -15.890625 C 14.832031 -16.929688 15.28125 -17.84375 15.28125 -18.625 C 15.28125 -19.09375 15.085938 -19.460938 14.703125 -19.734375 C 14.328125 -20.003906 13.796875 -20.160156 13.109375 -20.203125 L 13.109375 -20.765625 C 14.535156 -20.703125 15.984375 -20.671875 17.453125 -20.671875 C 18.585938 -20.671875 19.503906 -20.703125 20.203125 -20.765625 L 20.203125 -20.203125 C 18.640625 -19.835938 17.222656 -18.898438 15.953125 -17.390625 L 12.28125 -13.015625 Z M 19.125 -2.375 "/></g></g></g><g fill="#000000" fill-opacity="1"><g transform="translate(113.287262, 38.383083)"><g><path d="M 9.328125 -2 C 10.929688 -2 12.222656 -2.78125 13.203125 -4.34375 L 13.71875 -4.171875 C 13.332031 -2.898438 12.632812 -1.816406 11.625 -0.921875 C 10.625 -0.0351562 9.367188 0.40625 7.859375 0.40625 C 5.785156 0.40625 4.132812 -0.25 2.90625 -1.5625 C 1.6875 -2.882812 1.078125 -4.835938 1.078125 -7.421875 C 1.078125 -10.054688 1.734375 -12.070312 3.046875 -13.46875 C 4.359375 -14.875 6.097656 -15.578125 8.265625 -15.578125 C 11.941406 -15.578125 13.78125 -13.40625 13.78125 -9.0625 L 5.546875 -9.0625 C 5.523438 -8.769531 5.515625 -8.3125 5.515625 -7.6875 C 5.515625 -6.394531 5.691406 -5.316406 6.046875 -4.453125 C 6.410156 -3.597656 6.878906 -2.972656 7.453125 -2.578125 C 8.035156 -2.191406 8.660156 -2 9.328125 -2 Z M 8.09375 -14.953125 C 7.382812 -14.953125 6.800781 -14.515625 6.34375 -13.640625 C 5.882812 -12.773438 5.597656 -11.4375 5.484375 -9.625 L 10.09375 -9.625 C 10.125 -11.164062 9.96875 -12.4375 9.625 -13.4375 C 9.289062 -14.445312 8.78125 -14.953125 8.09375 -14.953125 Z M 8.09375 -14.953125 "/></g></g></g><g fill="#000000" fill-opacity="1"><g transform="translate(128.070634, 38.383083)"><g><path d="M 6.6875 -2.734375 C 6.6875 -1.929688 6.820312 -1.375 7.09375 -1.0625 C 7.375 -0.757812 7.863281 -0.609375 8.5625 -0.609375 L 8.5625 0 C 6.53125 -0.0820312 5.222656 -0.125 4.640625 -0.125 C 3.972656 -0.125 2.625 -0.0820312 0.59375 0 L 0.59375 -0.609375 C 1.269531 -0.609375 1.75 -0.757812 2.03125 -1.0625 C 2.320312 -1.375 2.46875 -1.929688 2.46875 -2.734375 L 2.46875 -19.4375 C 2.46875 -20.34375 2.320312 -21 2.03125 -21.40625 C 1.75 -21.820312 1.269531 -22.03125 0.59375 -22.03125 L 0.59375 -22.640625 C 1.21875 -22.578125 1.820312 -22.546875 2.40625 -22.546875 C 4.101562 -22.546875 5.53125 -22.6875 6.6875 -22.96875 Z M 6.6875 -2.734375 "/></g></g></g><g fill="#000000" fill-opacity="1"><g transform="translate(137.192914, 38.383083)"><g><path d="M 6.6875 -2.734375 C 6.6875 -1.929688 6.820312 -1.375 7.09375 -1.0625 C 7.375 -0.757812 7.863281 -0.609375 8.5625 -0.609375 L 8.5625 0 C 6.53125 -0.0820312 5.222656 -0.125 4.640625 -0.125 C 3.972656 -0.125 2.625 -0.0820312 0.59375 0 L 0.59375 -0.609375 C 1.269531 -0.609375 1.75 -0.757812 2.03125 -1.0625 C 2.320312 -1.375 2.46875 -1.929688 2.46875 -2.734375 L 2.46875 -19.4375 C 2.46875 -20.34375 2.320312 -21 2.03125 -21.40625 C 1.75 -21.820312 1.269531 -22.03125 0.59375 -22.03125 L 0.59375 -22.640625 C 1.21875 -22.578125 1.820312 -22.546875 2.40625 -22.546875 C 4.101562 -22.546875 5.53125 -22.6875 6.6875 -22.96875 Z M 6.6875 -2.734375 "/></g></g></g><g fill="#000000" fill-opacity="1"><g transform="translate(146.315193, 38.383083)"><g><path d="M 12.78125 -15.078125 C 13.757812 -15.078125 14.515625 -15.101562 15.046875 -15.15625 L 15.046875 -14.578125 C 14.628906 -14.460938 14.257812 -14.210938 13.9375 -13.828125 C 13.625 -13.441406 13.316406 -12.847656 13.015625 -12.046875 L 7.765625 2.703125 C 7.378906 3.710938 6.953125 4.40625 6.484375 4.78125 C 5.910156 5.269531 5.0625 5.515625 3.9375 5.515625 C 3.113281 5.515625 2.375 5.3125 1.71875 4.90625 C 1.0625 4.507812 0.734375 3.929688 0.734375 3.171875 C 0.734375 2.566406 0.945312 2.082031 1.375 1.71875 C 1.8125 1.351562 2.378906 1.171875 3.078125 1.171875 C 3.742188 1.171875 4.273438 1.332031 4.671875 1.65625 C 5.078125 1.976562 5.28125 2.429688 5.28125 3.015625 C 5.28125 3.429688 5.148438 3.804688 4.890625 4.140625 C 4.640625 4.484375 4.28125 4.742188 3.8125 4.921875 C 3.945312 4.941406 4.171875 4.953125 4.484375 4.953125 C 5.703125 4.953125 6.59375 4.179688 7.15625 2.640625 L 7.625 1.234375 L 1.40625 -12.90625 C 1.09375 -13.570312 0.789062 -14.007812 0.5 -14.21875 C 0.207031 -14.4375 -0.09375 -14.546875 -0.40625 -14.546875 L -0.40625 -15.15625 C 0.882812 -15.039062 2.222656 -14.984375 3.609375 -14.984375 C 4.765625 -14.984375 6.125 -15.039062 7.6875 -15.15625 L 7.6875 -14.546875 C 7.0625 -14.546875 6.597656 -14.5 6.296875 -14.40625 C 5.992188 -14.320312 5.84375 -14.09375 5.84375 -13.71875 C 5.84375 -13.507812 5.910156 -13.238281 6.046875 -12.90625 L 9.625 -4.25 L 11.640625 -9.890625 C 11.953125 -10.804688 12.109375 -11.585938 12.109375 -12.234375 C 12.109375 -13.660156 11.382812 -14.441406 9.9375 -14.578125 L 9.9375 -15.15625 C 10.863281 -15.101562 11.8125 -15.078125 12.78125 -15.078125 Z M 12.78125 -15.078125 "/></g></g></g><g fill="#000000" fill-opacity="1"><g transform="translate(161.538557, 38.383083)"><g/></g></g><g fill="#000000" fill-opacity="1"><g transform="translate(168.372933, 38.383083)"><g><path d="M 26.21875 -20.171875 C 25.550781 -20.140625 25.070312 -20.0625 24.78125 -19.9375 C 24.488281 -19.820312 24.285156 -19.597656 24.171875 -19.265625 C 24.066406 -18.929688 24.015625 -18.394531 24.015625 -17.65625 L 24.015625 -3.109375 C 24.015625 -2.367188 24.066406 -1.832031 24.171875 -1.5 C 24.285156 -1.164062 24.492188 -0.9375 24.796875 -0.8125 C 25.097656 -0.695312 25.570312 -0.625 26.21875 -0.59375 L 26.21875 0 C 25.144531 -0.0625 23.609375 -0.09375 21.609375 -0.09375 C 19.523438 -0.09375 17.984375 -0.0625 16.984375 0 L 16.984375 -0.59375 C 17.679688 -0.625 18.191406 -0.695312 18.515625 -0.8125 C 18.835938 -0.9375 19.054688 -1.164062 19.171875 -1.5 C 19.296875 -1.832031 19.359375 -2.367188 19.359375 -3.109375 L 19.359375 -18.453125 L 12.28125 0.03125 L 11.8125 0.03125 L 3.90625 -18.859375 L 3.90625 -4.8125 C 3.90625 -3.65625 3.960938 -2.804688 4.078125 -2.265625 C 4.191406 -1.734375 4.441406 -1.34375 4.828125 -1.09375 C 5.222656 -0.851562 5.863281 -0.6875 6.75 -0.59375 L 6.75 0 C 5.988281 -0.0625 4.929688 -0.09375 3.578125 -0.09375 C 2.503906 -0.09375 1.65625 -0.0625 1.03125 0 L 1.03125 -0.59375 C 1.675781 -0.6875 2.148438 -0.847656 2.453125 -1.078125 C 2.753906 -1.316406 2.957031 -1.691406 3.0625 -2.203125 C 3.164062 -2.710938 3.21875 -3.460938 3.21875 -4.453125 L 3.21875 -17.65625 C 3.21875 -18.394531 3.164062 -18.929688 3.0625 -19.265625 C 2.957031 -19.597656 2.753906 -19.820312 2.453125 -19.9375 C 2.148438 -20.0625 1.675781 -20.140625 1.03125 -20.171875 L 1.03125 -20.765625 C 1.65625 -20.703125 2.503906 -20.671875 3.578125 -20.671875 C 5.378906 -20.671875 6.925781 -20.703125 8.21875 -20.765625 L 14.140625 -6.484375 L 19.53125 -20.671875 L 21.609375 -20.671875 C 23.609375 -20.671875 25.144531 -20.703125 26.21875 -20.765625 Z M 26.21875 -20.171875 "/></g></g></g><g fill="#000000" fill-opacity="1"><g transform="translate(195.563783, 38.383083)"><g><path d="M 4.578125 0.203125 C 3.328125 0.203125 2.390625 -0.117188 1.765625 -0.765625 C 1.148438 -1.410156 0.84375 -2.257812 0.84375 -3.3125 C 0.84375 -4.195312 1.070312 -4.925781 1.53125 -5.5 C 2 -6.070312 2.554688 -6.515625 3.203125 -6.828125 C 3.859375 -7.140625 4.695312 -7.472656 5.71875 -7.828125 C 6.789062 -8.203125 7.578125 -8.539062 8.078125 -8.84375 C 8.578125 -9.144531 8.828125 -9.5625 8.828125 -10.09375 L 8.828125 -12.375 C 8.828125 -13.195312 8.632812 -13.835938 8.25 -14.296875 C 7.875 -14.753906 7.285156 -14.984375 6.484375 -14.984375 C 5.546875 -14.984375 4.832031 -14.75 4.34375 -14.28125 C 4.882812 -14.082031 5.304688 -13.785156 5.609375 -13.390625 C 5.921875 -13.003906 6.078125 -12.550781 6.078125 -12.03125 C 6.078125 -11.363281 5.847656 -10.832031 5.390625 -10.4375 C 4.941406 -10.050781 4.394531 -9.859375 3.75 -9.859375 C 3.070312 -9.859375 2.546875 -10.070312 2.171875 -10.5 C 1.796875 -10.925781 1.609375 -11.460938 1.609375 -12.109375 C 1.609375 -12.660156 1.738281 -13.125 2 -13.5 C 2.269531 -13.882812 2.675781 -14.242188 3.21875 -14.578125 C 3.75 -14.890625 4.398438 -15.132812 5.171875 -15.3125 C 5.941406 -15.488281 6.789062 -15.578125 7.71875 -15.578125 C 8.675781 -15.578125 9.503906 -15.476562 10.203125 -15.28125 C 10.910156 -15.082031 11.5 -14.75 11.96875 -14.28125 C 12.394531 -13.851562 12.679688 -13.328125 12.828125 -12.703125 C 12.972656 -12.078125 13.046875 -11.222656 13.046875 -10.140625 L 13.046875 -2.171875 C 13.046875 -1.703125 13.085938 -1.367188 13.171875 -1.171875 C 13.265625 -0.972656 13.441406 -0.875 13.703125 -0.875 C 13.992188 -0.875 14.34375 -1.039062 14.75 -1.375 L 15.046875 -0.875 C 14.160156 -0.15625 13.082031 0.203125 11.8125 0.203125 C 10.738281 0.203125 9.988281 -0.0078125 9.5625 -0.4375 C 9.132812 -0.863281 8.910156 -1.441406 8.890625 -2.171875 C 7.910156 -0.585938 6.472656 0.203125 4.578125 0.203125 Z M 6.828125 -1.671875 C 7.597656 -1.671875 8.265625 -2.070312 8.828125 -2.875 L 8.828125 -8.890625 C 8.585938 -8.492188 8.085938 -8.0625 7.328125 -7.59375 C 6.566406 -7.101562 5.988281 -6.613281 5.59375 -6.125 C 5.207031 -5.632812 5.015625 -4.929688 5.015625 -4.015625 C 5.015625 -3.210938 5.179688 -2.617188 5.515625 -2.234375 C 5.847656 -1.859375 6.285156 -1.671875 6.828125 -1.671875 Z M 6.828125 -1.671875 "/></g></g></g><g fill="#000000" fill-opacity="1"><g transform="translate(210.757805, 38.383083)"><g><path d="M 10.796875 -15.578125 C 11.671875 -15.578125 12.332031 -15.3125 12.78125 -14.78125 C 13.238281 -14.25 13.46875 -13.613281 13.46875 -12.875 C 13.46875 -12.15625 13.253906 -11.5625 12.828125 -11.09375 C 12.410156 -10.632812 11.859375 -10.40625 11.171875 -10.40625 C 10.503906 -10.40625 9.972656 -10.578125 9.578125 -10.921875 C 9.191406 -11.265625 9 -11.71875 9 -12.28125 C 9 -13.226562 9.429688 -13.992188 10.296875 -14.578125 C 10.210938 -14.597656 10.09375 -14.609375 9.9375 -14.609375 C 9.75 -14.609375 9.59375 -14.585938 9.46875 -14.546875 C 8.726562 -14.429688 8.097656 -13.984375 7.578125 -13.203125 C 7.054688 -12.421875 6.796875 -11.617188 6.796875 -10.796875 L 6.796875 -3.015625 C 6.796875 -2.117188 7.015625 -1.492188 7.453125 -1.140625 C 7.898438 -0.785156 8.601562 -0.609375 9.5625 -0.609375 L 9.5625 0 C 9.289062 0 9.066406 -0.0078125 8.890625 -0.03125 C 6.890625 -0.09375 5.554688 -0.125 4.890625 -0.125 C 4.367188 -0.125 3.171875 -0.09375 1.296875 -0.03125 C 1.140625 -0.0078125 0.941406 0 0.703125 0 L 0.703125 -0.609375 C 1.410156 -0.609375 1.898438 -0.757812 2.171875 -1.0625 C 2.441406 -1.375 2.578125 -1.929688 2.578125 -2.734375 L 2.578125 -11.96875 C 2.578125 -12.863281 2.441406 -13.515625 2.171875 -13.921875 C 1.898438 -14.335938 1.410156 -14.546875 0.703125 -14.546875 L 0.703125 -15.15625 C 1.328125 -15.101562 1.929688 -15.078125 2.515625 -15.078125 C 4.253906 -15.078125 5.679688 -15.210938 6.796875 -15.484375 L 6.796875 -12.75 C 7.171875 -13.59375 7.707031 -14.273438 8.40625 -14.796875 C 9.113281 -15.316406 9.910156 -15.578125 10.796875 -15.578125 Z M 10.796875 -15.578125 "/></g></g></g><g fill="#000000" fill-opacity="1"><g transform="translate(224.455889, 38.383083)"><g><path d="M 4.515625 -22.734375 C 5.335938 -22.734375 5.988281 -22.53125 6.46875 -22.125 C 6.945312 -21.726562 7.1875 -21.175781 7.1875 -20.46875 C 7.1875 -19.769531 6.945312 -19.21875 6.46875 -18.8125 C 5.988281 -18.414062 5.335938 -18.21875 4.515625 -18.21875 C 3.691406 -18.21875 3.039062 -18.414062 2.5625 -18.8125 C 2.082031 -19.21875 1.84375 -19.769531 1.84375 -20.46875 C 1.84375 -21.175781 2.082031 -21.726562 2.5625 -22.125 C 3.039062 -22.53125 3.691406 -22.734375 4.515625 -22.734375 Z M 6.796875 -2.734375 C 6.796875 -1.929688 6.9375 -1.375 7.21875 -1.0625 C 7.507812 -0.757812 8 -0.609375 8.6875 -0.609375 L 8.6875 0 C 6.726562 -0.0820312 5.425781 -0.125 4.78125 -0.125 C 4.175781 -0.125 2.816406 -0.0820312 0.703125 0 L 0.703125 -0.609375 C 1.410156 -0.609375 1.898438 -0.757812 2.171875 -1.0625 C 2.441406 -1.375 2.578125 -1.929688 2.578125 -2.734375 L 2.578125 -11.96875 C 2.578125 -12.863281 2.441406 -13.515625 2.171875 -13.921875 C 1.898438 -14.335938 1.410156 -14.546875 0.703125 -14.546875 L 0.703125 -15.15625 C 1.328125 -15.101562 1.929688 -15.078125 2.515625 -15.078125 C 4.253906 -15.078125 5.679688 -15.210938 6.796875 -15.484375 Z M 6.796875 -2.734375 "/></g></g></g><g fill="#000000" fill-opacity="1"><g transform="translate(233.695504, 38.383083)"><g><path d="M 4.578125 0.203125 C 3.328125 0.203125 2.390625 -0.117188 1.765625 -0.765625 C 1.148438 -1.410156 0.84375 -2.257812 0.84375 -3.3125 C 0.84375 -4.195312 1.070312 -4.925781 1.53125 -5.5 C 2 -6.070312 2.554688 -6.515625 3.203125 -6.828125 C 3.859375 -7.140625 4.695312 -7.472656 5.71875 -7.828125 C 6.789062 -8.203125 7.578125 -8.539062 8.078125 -8.84375 C 8.578125 -9.144531 8.828125 -9.5625 8.828125 -10.09375 L 8.828125 -12.375 C 8.828125 -13.195312 8.632812 -13.835938 8.25 -14.296875 C 7.875 -14.753906 7.285156 -14.984375 6.484375 -14.984375 C 5.546875 -14.984375 4.832031 -14.75 4.34375 -14.28125 C 4.882812 -14.082031 5.304688 -13.785156 5.609375 -13.390625 C 5.921875 -13.003906 6.078125 -12.550781 6.078125 -12.03125 C 6.078125 -11.363281 5.847656 -10.832031 5.390625 -10.4375 C 4.941406 -10.050781 4.394531 -9.859375 3.75 -9.859375 C 3.070312 -9.859375 2.546875 -10.070312 2.171875 -10.5 C 1.796875 -10.925781 1.609375 -11.460938 1.609375 -12.109375 C 1.609375 -12.660156 1.738281 -13.125 2 -13.5 C 2.269531 -13.882812 2.675781 -14.242188 3.21875 -14.578125 C 3.75 -14.890625 4.398438 -15.132812 5.171875 -15.3125 C 5.941406 -15.488281 6.789062 -15.578125 7.71875 -15.578125 C 8.675781 -15.578125 9.503906 -15.476562 10.203125 -15.28125 C 10.910156 -15.082031 11.5 -14.75 11.96875 -14.28125 C 12.394531 -13.851562 12.679688 -13.328125 12.828125 -12.703125 C 12.972656 -12.078125 13.046875 -11.222656 13.046875 -10.140625 L 13.046875 -2.171875 C 13.046875 -1.703125 13.085938 -1.367188 13.171875 -1.171875 C 13.265625 -0.972656 13.441406 -0.875 13.703125 -0.875 C 13.992188 -0.875 14.34375 -1.039062 14.75 -1.375 L 15.046875 -0.875 C 14.160156 -0.15625 13.082031 0.203125 11.8125 0.203125 C 10.738281 0.203125 9.988281 -0.0078125 9.5625 -0.4375 C 9.132812 -0.863281 8.910156 -1.441406 8.890625 -2.171875 C 7.910156 -0.585938 6.472656 0.203125 4.578125 0.203125 Z M 6.828125 -1.671875 C 7.597656 -1.671875 8.265625 -2.070312 8.828125 -2.875 L 8.828125 -8.890625 C 8.585938 -8.492188 8.085938 -8.0625 7.328125 -7.59375 C 6.566406 -7.101562 5.988281 -6.613281 5.59375 -6.125 C 5.207031 -5.632812 5.015625 -4.929688 5.015625 -4.015625 C 5.015625 -3.210938 5.179688 -2.617188 5.515625 -2.234375 C 5.847656 -1.859375 6.285156 -1.671875 6.828125 -1.671875 Z M 6.828125 -1.671875 "/></g></g></g><g fill="#000000" fill-opacity="1"><g transform="translate(133.623231, 66.099618)"><g><path d="M 9.078125 -1.34375 C 9.328125 -0.6875 9.691406 -0.34375 10.171875 -0.3125 L 10.171875 0 C 9.742188 -0.03125 9.175781 -0.046875 8.46875 -0.046875 C 7.550781 -0.046875 6.867188 -0.03125 6.421875 0 L 6.421875 -0.3125 C 6.828125 -0.34375 7.113281 -0.394531 7.28125 -0.46875 C 7.457031 -0.550781 7.546875 -0.695312 7.546875 -0.90625 C 7.546875 -1.09375 7.484375 -1.34375 7.359375 -1.65625 L 6.390625 -4.28125 L 2.515625 -4.28125 L 1.859375 -2.59375 C 1.640625 -2.019531 1.53125 -1.582031 1.53125 -1.28125 C 1.53125 -0.945312 1.644531 -0.707031 1.875 -0.5625 C 2.101562 -0.414062 2.453125 -0.332031 2.921875 -0.3125 L 2.921875 0 C 2.316406 -0.03125 1.707031 -0.046875 1.09375 -0.046875 C 0.613281 -0.046875 0.210938 -0.03125 -0.109375 0 L -0.109375 -0.3125 C 0.421875 -0.445312 0.84375 -0.914062 1.15625 -1.71875 L 4.90625 -11.40625 L 5.171875 -11.40625 Z M 6.25 -4.609375 L 4.46875 -9.390625 L 2.640625 -4.609375 Z M 6.25 -4.609375 "/></g></g></g><g fill="#000000" fill-opacity="1"><g transform="translate(143.700805, 66.099618)"><g><path d="M 3.015625 -1.484375 C 3.015625 -1.046875 3.101562 -0.742188 3.28125 -0.578125 C 3.457031 -0.421875 3.769531 -0.34375 4.21875 -0.34375 L 4.21875 0 C 3.238281 -0.0390625 2.59375 -0.0625 2.28125 -0.0625 C 1.976562 -0.0625 1.335938 -0.0390625 0.359375 0 L 0.359375 -0.34375 C 0.804688 -0.34375 1.117188 -0.421875 1.296875 -0.578125 C 1.472656 -0.742188 1.5625 -1.046875 1.5625 -1.484375 L 1.5625 -10.625 C 1.5625 -11.113281 1.472656 -11.46875 1.296875 -11.6875 C 1.117188 -11.914062 0.804688 -12.03125 0.359375 -12.03125 L 0.359375 -12.375 C 0.679688 -12.332031 1.007812 -12.3125 1.34375 -12.3125 C 2.019531 -12.3125 2.578125 -12.390625 3.015625 -12.546875 Z M 3.015625 -1.484375 "/></g></g></g><g fill="#000000" fill-opacity="1"><g transform="translate(148.275706, 66.099618)"><g><path d="M 4.421875 -12.515625 C 4.972656 -12.515625 5.4375 -12.367188 5.8125 -12.078125 C 6.132812 -11.816406 6.296875 -11.488281 6.296875 -11.09375 C 6.296875 -10.84375 6.21875 -10.632812 6.0625 -10.46875 C 5.90625 -10.3125 5.703125 -10.234375 5.453125 -10.234375 C 5.210938 -10.234375 5.003906 -10.3125 4.828125 -10.46875 C 4.660156 -10.625 4.578125 -10.835938 4.578125 -11.109375 C 4.578125 -11.328125 4.632812 -11.503906 4.75 -11.640625 C 4.875 -11.785156 5.039062 -11.878906 5.25 -11.921875 C 5.21875 -12.023438 5.128906 -12.109375 4.984375 -12.171875 C 4.847656 -12.234375 4.675781 -12.265625 4.46875 -12.265625 C 4.226562 -12.265625 4.015625 -12.210938 3.828125 -12.109375 C 3.648438 -12.003906 3.515625 -11.863281 3.421875 -11.6875 C 3.304688 -11.46875 3.226562 -11.148438 3.1875 -10.734375 C 3.15625 -10.316406 3.140625 -9.617188 3.140625 -8.640625 L 3.140625 -8.21875 L 4.84375 -8.21875 L 4.84375 -7.90625 L 3.140625 -7.90625 L 3.140625 -1.640625 C 3.140625 -1.148438 3.28125 -0.8125 3.5625 -0.625 C 3.84375 -0.4375 4.265625 -0.34375 4.828125 -0.34375 L 4.828125 0 L 4.453125 -0.015625 C 3.359375 -0.046875 2.664062 -0.0625 2.375 -0.0625 C 2.09375 -0.0625 1.460938 -0.0390625 0.484375 0 L 0.484375 -0.34375 C 0.929688 -0.34375 1.242188 -0.421875 1.421875 -0.578125 C 1.609375 -0.742188 1.703125 -1.046875 1.703125 -1.484375 L 1.703125 -7.90625 L 0.421875 -7.90625 L 0.421875 -8.21875 L 1.703125 -8.21875 C 1.703125 -9.15625 1.757812 -9.878906 1.875 -10.390625 C 1.988281 -10.910156 2.203125 -11.351562 2.515625 -11.71875 C 2.722656 -11.957031 2.992188 -12.148438 3.328125 -12.296875 C 3.660156 -12.441406 4.023438 -12.515625 4.421875 -12.515625 Z M 4.421875 -12.515625 "/></g></g></g><g fill="#000000" fill-opacity="1"><g transform="translate(153.586428, 66.099618)"><g><path d="M 2.609375 0.109375 C 1.929688 0.109375 1.429688 -0.0546875 1.109375 -0.390625 C 0.785156 -0.722656 0.625 -1.191406 0.625 -1.796875 C 0.625 -2.273438 0.753906 -2.664062 1.015625 -2.96875 C 1.273438 -3.28125 1.582031 -3.523438 1.9375 -3.703125 C 2.300781 -3.890625 2.773438 -4.082031 3.359375 -4.28125 C 3.953125 -4.488281 4.394531 -4.675781 4.6875 -4.84375 C 4.976562 -5.019531 5.125 -5.25 5.125 -5.53125 L 5.125 -6.53125 C 5.125 -7.144531 4.992188 -7.566406 4.734375 -7.796875 C 4.472656 -8.023438 4.101562 -8.140625 3.625 -8.140625 C 2.882812 -8.140625 2.359375 -7.945312 2.046875 -7.5625 C 2.265625 -7.507812 2.441406 -7.394531 2.578125 -7.21875 C 2.722656 -7.050781 2.796875 -6.84375 2.796875 -6.59375 C 2.796875 -6.320312 2.707031 -6.109375 2.53125 -5.953125 C 2.363281 -5.804688 2.148438 -5.734375 1.890625 -5.734375 C 1.585938 -5.734375 1.359375 -5.820312 1.203125 -6 C 1.054688 -6.1875 0.984375 -6.414062 0.984375 -6.6875 C 0.984375 -6.945312 1.046875 -7.160156 1.171875 -7.328125 C 1.296875 -7.492188 1.484375 -7.664062 1.734375 -7.84375 C 1.984375 -8.019531 2.304688 -8.164062 2.703125 -8.28125 C 3.097656 -8.40625 3.53125 -8.46875 4 -8.46875 C 4.832031 -8.46875 5.460938 -8.269531 5.890625 -7.875 C 6.148438 -7.625 6.328125 -7.328125 6.421875 -6.984375 C 6.515625 -6.640625 6.5625 -6.179688 6.5625 -5.609375 L 6.5625 -1.171875 C 6.5625 -0.898438 6.597656 -0.707031 6.671875 -0.59375 C 6.742188 -0.476562 6.875 -0.421875 7.0625 -0.421875 C 7.1875 -0.421875 7.300781 -0.445312 7.40625 -0.5 C 7.519531 -0.5625 7.644531 -0.644531 7.78125 -0.75 L 7.953125 -0.484375 C 7.671875 -0.265625 7.429688 -0.109375 7.234375 -0.015625 C 7.035156 0.0664062 6.789062 0.109375 6.5 0.109375 C 5.988281 0.109375 5.628906 -0.015625 5.421875 -0.265625 C 5.222656 -0.523438 5.125 -0.875 5.125 -1.3125 C 4.800781 -0.78125 4.429688 -0.410156 4.015625 -0.203125 C 3.597656 0.00390625 3.128906 0.109375 2.609375 0.109375 Z M 3.3125 -0.53125 C 4.019531 -0.53125 4.625 -0.9375 5.125 -1.75 L 5.125 -4.875 C 5.019531 -4.726562 4.882812 -4.609375 4.71875 -4.515625 C 4.550781 -4.421875 4.289062 -4.289062 3.9375 -4.125 C 3.53125 -3.957031 3.203125 -3.796875 2.953125 -3.640625 C 2.703125 -3.484375 2.484375 -3.269531 2.296875 -3 C 2.117188 -2.738281 2.03125 -2.398438 2.03125 -1.984375 C 2.03125 -1.503906 2.144531 -1.140625 2.375 -0.890625 C 2.613281 -0.648438 2.925781 -0.53125 3.3125 -0.53125 Z M 3.3125 -0.53125 "/></g></g></g><g fill="#000000" fill-opacity="1"><g transform="translate(161.552511, 66.099618)"><g><path d="M 2.296875 -12.234375 C 2.566406 -12.234375 2.800781 -12.128906 3 -11.921875 C 3.207031 -11.722656 3.3125 -11.488281 3.3125 -11.21875 C 3.3125 -10.9375 3.207031 -10.691406 3 -10.484375 C 2.800781 -10.285156 2.566406 -10.1875 2.296875 -10.1875 C 2.015625 -10.1875 1.769531 -10.285156 1.5625 -10.484375 C 1.363281 -10.691406 1.265625 -10.9375 1.265625 -11.21875 C 1.265625 -11.488281 1.363281 -11.722656 1.5625 -11.921875 C 1.769531 -12.128906 2.015625 -12.234375 2.296875 -12.234375 Z M 3.125 -1.484375 C 3.125 -1.046875 3.210938 -0.742188 3.390625 -0.578125 C 3.566406 -0.421875 3.882812 -0.34375 4.34375 -0.34375 L 4.34375 0 C 3.351562 -0.0390625 2.707031 -0.0625 2.40625 -0.0625 C 2.09375 -0.0625 1.445312 -0.0390625 0.46875 0 L 0.46875 -0.34375 C 0.914062 -0.34375 1.226562 -0.421875 1.40625 -0.578125 C 1.59375 -0.742188 1.6875 -1.046875 1.6875 -1.484375 L 1.6875 -6.5 C 1.6875 -6.988281 1.59375 -7.34375 1.40625 -7.5625 C 1.226562 -7.789062 0.914062 -7.90625 0.46875 -7.90625 L 0.46875 -8.234375 C 0.800781 -8.203125 1.128906 -8.1875 1.453125 -8.1875 C 2.128906 -8.1875 2.6875 -8.265625 3.125 -8.421875 Z M 3.125 -1.484375 "/></g></g></g><g fill="#000000" fill-opacity="1"><g transform="translate(166.239381, 66.099618)"><g><path d="M 2.609375 0.109375 C 1.929688 0.109375 1.429688 -0.0546875 1.109375 -0.390625 C 0.785156 -0.722656 0.625 -1.191406 0.625 -1.796875 C 0.625 -2.273438 0.753906 -2.664062 1.015625 -2.96875 C 1.273438 -3.28125 1.582031 -3.523438 1.9375 -3.703125 C 2.300781 -3.890625 2.773438 -4.082031 3.359375 -4.28125 C 3.953125 -4.488281 4.394531 -4.675781 4.6875 -4.84375 C 4.976562 -5.019531 5.125 -5.25 5.125 -5.53125 L 5.125 -6.53125 C 5.125 -7.144531 4.992188 -7.566406 4.734375 -7.796875 C 4.472656 -8.023438 4.101562 -8.140625 3.625 -8.140625 C 2.882812 -8.140625 2.359375 -7.945312 2.046875 -7.5625 C 2.265625 -7.507812 2.441406 -7.394531 2.578125 -7.21875 C 2.722656 -7.050781 2.796875 -6.84375 2.796875 -6.59375 C 2.796875 -6.320312 2.707031 -6.109375 2.53125 -5.953125 C 2.363281 -5.804688 2.148438 -5.734375 1.890625 -5.734375 C 1.585938 -5.734375 1.359375 -5.820312 1.203125 -6 C 1.054688 -6.1875 0.984375 -6.414062 0.984375 -6.6875 C 0.984375 -6.945312 1.046875 -7.160156 1.171875 -7.328125 C 1.296875 -7.492188 1.484375 -7.664062 1.734375 -7.84375 C 1.984375 -8.019531 2.304688 -8.164062 2.703125 -8.28125 C 3.097656 -8.40625 3.53125 -8.46875 4 -8.46875 C 4.832031 -8.46875 5.460938 -8.269531 5.890625 -7.875 C 6.148438 -7.625 6.328125 -7.328125 6.421875 -6.984375 C 6.515625 -6.640625 6.5625 -6.179688 6.5625 -5.609375 L 6.5625 -1.171875 C 6.5625 -0.898438 6.597656 -0.707031 6.671875 -0.59375 C 6.742188 -0.476562 6.875 -0.421875 7.0625 -0.421875 C 7.1875 -0.421875 7.300781 -0.445312 7.40625 -0.5 C 7.519531 -0.5625 7.644531 -0.644531 7.78125 -0.75 L 7.953125 -0.484375 C 7.671875 -0.265625 7.429688 -0.109375 7.234375 -0.015625 C 7.035156 0.0664062 6.789062 0.109375 6.5 0.109375 C 5.988281 0.109375 5.628906 -0.015625 5.421875 -0.265625 C 5.222656 -0.523438 5.125 -0.875 5.125 -1.3125 C 4.800781 -0.78125 4.429688 -0.410156 4.015625 -0.203125 C 3.597656 0.00390625 3.128906 0.109375 2.609375 0.109375 Z M 3.3125 -0.53125 C 4.019531 -0.53125 4.625 -0.9375 5.125 -1.75 L 5.125 -4.875 C 5.019531 -4.726562 4.882812 -4.609375 4.71875 -4.515625 C 4.550781 -4.421875 4.289062 -4.289062 3.9375 -4.125 C 3.53125 -3.957031 3.203125 -3.796875 2.953125 -3.640625 C 2.703125 -3.484375 2.484375 -3.269531 2.296875 -3 C 2.117188 -2.738281 2.03125 -2.398438 2.03125 -1.984375 C 2.03125 -1.503906 2.144531 -1.140625 2.375 -0.890625 C 2.613281 -0.648438 2.925781 -0.53125 3.3125 -0.53125 Z M 3.3125 -0.53125 "/></g></g></g><g fill="#000000" fill-opacity="1"><g transform="translate(174.205463, 66.099618)"><g><path d="M 3.046875 -8.21875 L 5.40625 -8.21875 L 5.40625 -7.90625 L 3.046875 -7.90625 L 3.046875 -1.71875 C 3.046875 -1.226562 3.128906 -0.878906 3.296875 -0.671875 C 3.472656 -0.460938 3.726562 -0.359375 4.0625 -0.359375 C 4.394531 -0.359375 4.675781 -0.488281 4.90625 -0.75 C 5.144531 -1.019531 5.34375 -1.457031 5.5 -2.0625 L 5.828125 -1.984375 C 5.554688 -0.515625 4.863281 0.21875 3.75 0.21875 C 3.382812 0.21875 3.082031 0.175781 2.84375 0.09375 C 2.613281 0.0078125 2.40625 -0.117188 2.21875 -0.296875 C 1.988281 -0.535156 1.828125 -0.828125 1.734375 -1.171875 C 1.640625 -1.515625 1.59375 -1.972656 1.59375 -2.546875 L 1.59375 -7.90625 L 0.0625 -7.90625 L 0.0625 -8.21875 L 1.59375 -8.21875 L 1.59375 -10.671875 C 2.195312 -10.691406 2.679688 -10.765625 3.046875 -10.890625 Z M 3.046875 -8.21875 "/></g></g></g><g fill="#000000" fill-opacity="1"><g transform="translate(179.868102, 66.099618)"><g><path d="M 2.609375 0.109375 C 1.929688 0.109375 1.429688 -0.0546875 1.109375 -0.390625 C 0.785156 -0.722656 0.625 -1.191406 0.625 -1.796875 C 0.625 -2.273438 0.753906 -2.664062 1.015625 -2.96875 C 1.273438 -3.28125 1.582031 -3.523438 1.9375 -3.703125 C 2.300781 -3.890625 2.773438 -4.082031 3.359375 -4.28125 C 3.953125 -4.488281 4.394531 -4.675781 4.6875 -4.84375 C 4.976562 -5.019531 5.125 -5.25 5.125 -5.53125 L 5.125 -6.53125 C 5.125 -7.144531 4.992188 -7.566406 4.734375 -7.796875 C 4.472656 -8.023438 4.101562 -8.140625 3.625 -8.140625 C 2.882812 -8.140625 2.359375 -7.945312 2.046875 -7.5625 C 2.265625 -7.507812 2.441406 -7.394531 2.578125 -7.21875 C 2.722656 -7.050781 2.796875 -6.84375 2.796875 -6.59375 C 2.796875 -6.320312 2.707031 -6.109375 2.53125 -5.953125 C 2.363281 -5.804688 2.148438 -5.734375 1.890625 -5.734375 C 1.585938 -5.734375 1.359375 -5.820312 1.203125 -6 C 1.054688 -6.1875 0.984375 -6.414062 0.984375 -6.6875 C 0.984375 -6.945312 1.046875 -7.160156 1.171875 -7.328125 C 1.296875 -7.492188 1.484375 -7.664062 1.734375 -7.84375 C 1.984375 -8.019531 2.304688 -8.164062 2.703125 -8.28125 C 3.097656 -8.40625 3.53125 -8.46875 4 -8.46875 C 4.832031 -8.46875 5.460938 -8.269531 5.890625 -7.875 C 6.148438 -7.625 6.328125 -7.328125 6.421875 -6.984375 C 6.515625 -6.640625 6.5625 -6.179688 6.5625 -5.609375 L 6.5625 -1.171875 C 6.5625 -0.898438 6.597656 -0.707031 6.671875 -0.59375 C 6.742188 -0.476562 6.875 -0.421875 7.0625 -0.421875 C 7.1875 -0.421875 7.300781 -0.445312 7.40625 -0.5 C 7.519531 -0.5625 7.644531 -0.644531 7.78125 -0.75 L 7.953125 -0.484375 C 7.671875 -0.265625 7.429688 -0.109375 7.234375 -0.015625 C 7.035156 0.0664062 6.789062 0.109375 6.5 0.109375 C 5.988281 0.109375 5.628906 -0.015625 5.421875 -0.265625 C 5.222656 -0.523438 5.125 -0.875 5.125 -1.3125 C 4.800781 -0.78125 4.429688 -0.410156 4.015625 -0.203125 C 3.597656 0.00390625 3.128906 0.109375 2.609375 0.109375 Z M 3.3125 -0.53125 C 4.019531 -0.53125 4.625 -0.9375 5.125 -1.75 L 5.125 -4.875 C 5.019531 -4.726562 4.882812 -4.609375 4.71875 -4.515625 C 4.550781 -4.421875 4.289062 -4.289062 3.9375 -4.125 C 3.53125 -3.957031 3.203125 -3.796875 2.953125 -3.640625 C 2.703125 -3.484375 2.484375 -3.269531 2.296875 -3 C 2.117188 -2.738281 2.03125 -2.398438 2.03125 -1.984375 C 2.03125 -1.503906 2.144531 -1.140625 2.375 -0.890625 C 2.613281 -0.648438 2.925781 -0.53125 3.3125 -0.53125 Z M 3.3125 -0.53125 "/></g></g></g><g fill="#000000" fill-opacity="1"><g transform="translate(187.834185, 66.099618)"><g><path d="M 5.4375 -8.46875 C 5.863281 -8.46875 6.210938 -8.34375 6.484375 -8.09375 C 6.753906 -7.851562 6.890625 -7.554688 6.890625 -7.203125 C 6.890625 -6.921875 6.804688 -6.679688 6.640625 -6.484375 C 6.484375 -6.285156 6.265625 -6.1875 5.984375 -6.1875 C 5.742188 -6.1875 5.539062 -6.257812 5.375 -6.40625 C 5.21875 -6.5625 5.140625 -6.769531 5.140625 -7.03125 C 5.140625 -7.375 5.320312 -7.660156 5.6875 -7.890625 C 5.601562 -7.992188 5.488281 -8.046875 5.34375 -8.046875 C 4.925781 -8.046875 4.546875 -7.882812 4.203125 -7.5625 C 3.867188 -7.238281 3.601562 -6.835938 3.40625 -6.359375 C 3.21875 -5.890625 3.125 -5.453125 3.125 -5.046875 L 3.125 -1.640625 C 3.125 -1.148438 3.265625 -0.8125 3.546875 -0.625 C 3.828125 -0.4375 4.25 -0.34375 4.8125 -0.34375 L 4.8125 0 L 4.4375 -0.015625 C 3.34375 -0.046875 2.648438 -0.0625 2.359375 -0.0625 C 2.078125 -0.0625 1.445312 -0.0390625 0.46875 0 L 0.46875 -0.34375 C 0.914062 -0.34375 1.226562 -0.421875 1.40625 -0.578125 C 1.59375 -0.742188 1.6875 -1.046875 1.6875 -1.484375 L 1.6875 -6.5 C 1.6875 -6.988281 1.59375 -7.34375 1.40625 -7.5625 C 1.226562 -7.789062 0.914062 -7.90625 0.46875 -7.90625 L 0.46875 -8.234375 C 0.800781 -8.203125 1.128906 -8.1875 1.453125 -8.1875 C 2.128906 -8.1875 2.6875 -8.265625 3.125 -8.421875 L 3.125 -6.421875 C 3.3125 -6.953125 3.613281 -7.425781 4.03125 -7.84375 C 4.457031 -8.257812 4.925781 -8.46875 5.4375 -8.46875 Z M 5.4375 -8.46875 "/></g></g></g><g fill="#000000" fill-opacity="1"><g transform="translate(194.952478, 66.099618)"><g><path d="M 2.296875 -12.234375 C 2.566406 -12.234375 2.800781 -12.128906 3 -11.921875 C 3.207031 -11.722656 3.3125 -11.488281 3.3125 -11.21875 C 3.3125 -10.9375 3.207031 -10.691406 3 -10.484375 C 2.800781 -10.285156 2.566406 -10.1875 2.296875 -10.1875 C 2.015625 -10.1875 1.769531 -10.285156 1.5625 -10.484375 C 1.363281 -10.691406 1.265625 -10.9375 1.265625 -11.21875 C 1.265625 -11.488281 1.363281 -11.722656 1.5625 -11.921875 C 1.769531 -12.128906 2.015625 -12.234375 2.296875 -12.234375 Z M 3.125 -1.484375 C 3.125 -1.046875 3.210938 -0.742188 3.390625 -0.578125 C 3.566406 -0.421875 3.882812 -0.34375 4.34375 -0.34375 L 4.34375 0 C 3.351562 -0.0390625 2.707031 -0.0625 2.40625 -0.0625 C 2.09375 -0.0625 1.445312 -0.0390625 0.46875 0 L 0.46875 -0.34375 C 0.914062 -0.34375 1.226562 -0.421875 1.40625 -0.578125 C 1.59375 -0.742188 1.6875 -1.046875 1.6875 -1.484375 L 1.6875 -6.5 C 1.6875 -6.988281 1.59375 -7.34375 1.40625 -7.5625 C 1.226562 -7.789062 0.914062 -7.90625 0.46875 -7.90625 L 0.46875 -8.234375 C 0.800781 -8.203125 1.128906 -8.1875 1.453125 -8.1875 C 2.128906 -8.1875 2.6875 -8.265625 3.125 -8.421875 Z M 3.125 -1.484375 "/></g></g></g><g fill="#000000" fill-opacity="1"><g transform="translate(199.639348, 66.099618)"><g><path d="M 2.609375 0.109375 C 1.929688 0.109375 1.429688 -0.0546875 1.109375 -0.390625 C 0.785156 -0.722656 0.625 -1.191406 0.625 -1.796875 C 0.625 -2.273438 0.753906 -2.664062 1.015625 -2.96875 C 1.273438 -3.28125 1.582031 -3.523438 1.9375 -3.703125 C 2.300781 -3.890625 2.773438 -4.082031 3.359375 -4.28125 C 3.953125 -4.488281 4.394531 -4.675781 4.6875 -4.84375 C 4.976562 -5.019531 5.125 -5.25 5.125 -5.53125 L 5.125 -6.53125 C 5.125 -7.144531 4.992188 -7.566406 4.734375 -7.796875 C 4.472656 -8.023438 4.101562 -8.140625 3.625 -8.140625 C 2.882812 -8.140625 2.359375 -7.945312 2.046875 -7.5625 C 2.265625 -7.507812 2.441406 -7.394531 2.578125 -7.21875 C 2.722656 -7.050781 2.796875 -6.84375 2.796875 -6.59375 C 2.796875 -6.320312 2.707031 -6.109375 2.53125 -5.953125 C 2.363281 -5.804688 2.148438 -5.734375 1.890625 -5.734375 C 1.585938 -5.734375 1.359375 -5.820312 1.203125 -6 C 1.054688 -6.1875 0.984375 -6.414062 0.984375 -6.6875 C 0.984375 -6.945312 1.046875 -7.160156 1.171875 -7.328125 C 1.296875 -7.492188 1.484375 -7.664062 1.734375 -7.84375 C 1.984375 -8.019531 2.304688 -8.164062 2.703125 -8.28125 C 3.097656 -8.40625 3.53125 -8.46875 4 -8.46875 C 4.832031 -8.46875 5.460938 -8.269531 5.890625 -7.875 C 6.148438 -7.625 6.328125 -7.328125 6.421875 -6.984375 C 6.515625 -6.640625 6.5625 -6.179688 6.5625 -5.609375 L 6.5625 -1.171875 C 6.5625 -0.898438 6.597656 -0.707031 6.671875 -0.59375 C 6.742188 -0.476562 6.875 -0.421875 7.0625 -0.421875 C 7.1875 -0.421875 7.300781 -0.445312 7.40625 -0.5 C 7.519531 -0.5625 7.644531 -0.644531 7.78125 -0.75 L 7.953125 -0.484375 C 7.671875 -0.265625 7.429688 -0.109375 7.234375 -0.015625 C 7.035156 0.0664062 6.789062 0.109375 6.5 0.109375 C 5.988281 0.109375 5.628906 -0.015625 5.421875 -0.265625 C 5.222656 -0.523438 5.125 -0.875 5.125 -1.3125 C 4.800781 -0.78125 4.429688 -0.410156 4.015625 -0.203125 C 3.597656 0.00390625 3.128906 0.109375 2.609375 0.109375 Z M 3.3125 -0.53125 C 4.019531 -0.53125 4.625 -0.9375 5.125 -1.75 L 5.125 -4.875 C 5.019531 -4.726562 4.882812 -4.609375 4.71875 -4.515625 C 4.550781 -4.421875 4.289062 -4.289062 3.9375 -4.125 C 3.53125 -3.957031 3.203125 -3.796875 2.953125 -3.640625 C 2.703125 -3.484375 2.484375 -3.269531 2.296875 -3 C 2.117188 -2.738281 2.03125 -2.398438 2.03125 -1.984375 C 2.03125 -1.503906 2.144531 -1.140625 2.375 -0.890625 C 2.613281 -0.648438 2.925781 -0.53125 3.3125 -0.53125 Z M 3.3125 -0.53125 "/></g></g></g></svg>