<svg xmlns="http://www.w3.org/2000/svg" xmlns:xlink="http://www.w3.org/1999/xlink" width="450" zoomAndPan="magnify" viewBox="0 0 337.5 74.999997" height="100" preserveAspectRatio="xMidYMid meet" version="1.0"><defs><g/><clipPath id="ffe9b22700"><path d="M 220.589844 45 L 250 45 L 250 65.269531 L 220.589844 65.269531 Z M 220.589844 45 " clip-rule="nonzero"/></clipPath><clipPath id="f553aa2a0d"><path d="M 240 29.269531 L 255.839844 29.269531 L 255.839844 56 L 240 56 Z M 240 29.269531 " clip-rule="nonzero"/></clipPath><clipPath id="45bd832417"><path d="M 0 1 L 337 1 L 337 3 L 0 3 Z M 0 1 " clip-rule="nonzero"/></clipPath></defs><g clip-path="url(#ffe9b22700)"><path stroke-linecap="butt" transform="matrix(0.0847152, 0, 0, 0.0856386, 214.141817, 27.99987)" fill-opacity="1" fill="#000000" fill-rule="evenodd" stroke-linejoin="miter" d="M 414.702669 211.281873 C 406.956126 199.604893 344.614895 232.263947 311.692086 269.210641 C 272.821037 295.39262 120.380129 398.20478 76.160276 434.832182 C 127.204465 408.558977 281.628119 308.711675 320.960272 283.259508 C 367.854526 267.47734 422.356992 222.91324 414.656559 211.23626 Z M 404.604497 217.348429 C 406.679464 220.49574 389.664734 235.365645 366.701766 250.554841 C 343.692688 265.744038 323.311901 275.550877 321.236934 272.403566 C 319.161967 269.256255 336.176696 254.38635 359.139664 239.197154 C 382.148743 224.007957 402.52953 214.201118 404.604497 217.348429 Z M 404.604497 217.348429 " stroke="#000000" stroke-width="0.348" stroke-opacity="1" stroke-miterlimit="4"/></g><g clip-path="url(#f553aa2a0d)"><path fill="#000000" d="M 244.507812 49.855469 C 244.613281 50.011719 243.40625 48.28125 244.921875 50.464844 C 246.433594 52.652344 247.734375 53.878906 250.753906 55.265625 C 250.957031 55.359375 251.195312 55.269531 251.285156 55.0625 C 251.378906 54.859375 251.289062 54.621094 251.085938 54.527344 C 248.160156 53.183594 247.039062 52.132812 245.59375 50.03125 C 244.152344 47.929688 245.285156 49.574219 245.183594 49.417969 C 245.078125 49.257812 244.96875 49.097656 244.859375 48.925781 C 244.761719 48.773438 244.65625 48.613281 244.550781 48.441406 C 244.527344 48.453125 244.503906 48.46875 244.484375 48.484375 C 244.277344 48.621094 244.078125 48.757812 243.886719 48.894531 C 243.992188 49.0625 244.09375 49.222656 244.191406 49.371094 C 244.296875 49.539062 244.402344 49.699219 244.507812 49.855469 Z M 248.761719 29.285156 C 248.707031 29.285156 248.65625 29.285156 248.601562 29.289062 C 248.484375 29.292969 248.367188 29.300781 248.257812 29.3125 C 247.363281 29.417969 246.707031 29.847656 246.402344 30.480469 C 246.097656 31.117188 246.132812 31.882812 246.386719 32.667969 C 246.640625 33.453125 247.117188 34.269531 247.773438 35.042969 C 247.917969 35.214844 248.171875 35.234375 248.339844 35.089844 C 248.507812 34.945312 248.527344 34.6875 248.382812 34.515625 C 247.785156 33.808594 247.363281 33.070312 247.148438 32.414062 C 246.9375 31.761719 246.941406 31.207031 247.121094 30.835938 C 247.300781 30.464844 247.644531 30.199219 248.347656 30.117188 C 249.054688 30.035156 250.097656 30.179688 251.496094 30.675781 C 254.199219 31.636719 255 33.90625 254.785156 35.796875 C 254.675781 36.742188 254.292969 37.574219 253.789062 38.058594 C 253.285156 38.542969 252.710938 38.71875 251.972656 38.414062 C 250.285156 37.722656 248.761719 36.792969 247.15625 36.3125 C 245.550781 35.828125 243.832031 35.839844 241.964844 37.023438 C 240.984375 37.648438 240.503906 38.628906 240.40625 39.703125 C 240.308594 40.777344 240.550781 41.957031 240.957031 43.140625 C 241.601562 45.015625 242.65625 46.910156 243.539062 48.339844 C 243.757812 48.179688 243.980469 48.027344 244.199219 47.878906 C 243.339844 46.476562 242.316406 44.636719 241.714844 42.875 C 241.332031 41.753906 241.121094 40.671875 241.203125 39.777344 C 241.285156 38.886719 241.621094 38.199219 242.394531 37.710938 C 244.082031 36.636719 245.460938 36.648438 246.925781 37.089844 C 248.390625 37.527344 249.910156 38.441406 251.671875 39.164062 C 252.675781 39.578125 253.660156 39.300781 254.34375 38.644531 C 255.023438 37.988281 255.453125 36.992188 255.582031 35.886719 C 255.832031 33.683594 254.800781 30.992188 251.765625 29.910156 C 250.558594 29.480469 249.570312 29.285156 248.761719 29.285156 Z M 248.761719 29.285156 " fill-opacity="1" fill-rule="evenodd"/></g><g fill="#060606" fill-opacity="1"><g transform="translate(95.566877, 33.570633)"><g><path d="M 18.953125 -2.359375 C 19.242188 -1.910156 19.539062 -1.550781 19.84375 -1.28125 C 20.15625 -1.007812 20.554688 -0.773438 21.046875 -0.578125 L 21.046875 0 C 19.679688 -0.0625 18.164062 -0.09375 16.5 -0.09375 C 15.226562 -0.09375 14 -0.0625 12.8125 0 L 12.8125 -0.578125 C 13.351562 -0.617188 13.742188 -0.675781 13.984375 -0.75 C 14.234375 -0.832031 14.359375 -0.96875 14.359375 -1.15625 C 14.359375 -1.3125 14.25 -1.554688 14.03125 -1.890625 L 9.828125 -8.71875 C 9.429688 -9.34375 9.101562 -9.757812 8.84375 -9.96875 C 8.582031 -10.175781 8.226562 -10.300781 7.78125 -10.34375 L 7.78125 -3.078125 C 7.78125 -2.335938 7.832031 -1.800781 7.9375 -1.46875 C 8.050781 -1.144531 8.253906 -0.925781 8.546875 -0.8125 C 8.835938 -0.695312 9.3125 -0.617188 9.96875 -0.578125 L 9.96875 0 C 8.925781 -0.0625 7.460938 -0.09375 5.578125 -0.09375 C 3.503906 -0.09375 1.972656 -0.0625 0.984375 0 L 0.984375 -0.578125 C 1.628906 -0.617188 2.097656 -0.695312 2.390625 -0.8125 C 2.691406 -0.925781 2.894531 -1.144531 3 -1.46875 C 3.113281 -1.800781 3.171875 -2.335938 3.171875 -3.078125 L 3.171875 -17.5 C 3.171875 -18.226562 3.113281 -18.757812 3 -19.09375 C 2.894531 -19.425781 2.691406 -19.648438 2.390625 -19.765625 C 2.097656 -19.878906 1.628906 -19.957031 0.984375 -20 L 0.984375 -20.578125 C 1.972656 -20.515625 3.503906 -20.484375 5.578125 -20.484375 C 7.460938 -20.484375 8.925781 -20.515625 9.96875 -20.578125 L 9.96875 -20 C 9.3125 -19.957031 8.835938 -19.878906 8.546875 -19.765625 C 8.253906 -19.648438 8.050781 -19.425781 7.9375 -19.09375 C 7.832031 -18.757812 7.78125 -18.226562 7.78125 -17.5 L 7.78125 -10.953125 C 8.5625 -10.992188 9.269531 -11.226562 9.90625 -11.65625 C 10.550781 -12.082031 11.28125 -12.757812 12.09375 -13.6875 L 13.8125 -15.75 C 14.695312 -16.78125 15.140625 -17.679688 15.140625 -18.453125 C 15.140625 -18.921875 14.953125 -19.289062 14.578125 -19.5625 C 14.203125 -19.832031 13.671875 -19.988281 12.984375 -20.03125 L 12.984375 -20.578125 C 14.398438 -20.515625 15.835938 -20.484375 17.296875 -20.484375 C 18.421875 -20.484375 19.332031 -20.515625 20.03125 -20.578125 L 20.03125 -20.03125 C 18.476562 -19.65625 17.070312 -18.722656 15.8125 -17.234375 L 12.171875 -12.90625 Z M 18.953125 -2.359375 "/></g></g></g><g fill="#060606" fill-opacity="1"><g transform="translate(115.440938, 33.570633)"><g><path d="M 9.234375 -1.96875 C 10.828125 -1.96875 12.109375 -2.742188 13.078125 -4.296875 L 13.59375 -4.125 C 13.207031 -2.863281 12.515625 -1.789062 11.515625 -0.90625 C 10.523438 -0.03125 9.28125 0.40625 7.78125 0.40625 C 5.726562 0.40625 4.097656 -0.242188 2.890625 -1.546875 C 1.679688 -2.859375 1.078125 -4.796875 1.078125 -7.359375 C 1.078125 -9.972656 1.722656 -11.972656 3.015625 -13.359375 C 4.316406 -14.742188 6.046875 -15.4375 8.203125 -15.4375 C 11.835938 -15.4375 13.65625 -13.285156 13.65625 -8.984375 L 5.5 -8.984375 C 5.476562 -8.691406 5.46875 -8.234375 5.46875 -7.609375 C 5.46875 -6.335938 5.644531 -5.273438 6 -4.421875 C 6.363281 -3.566406 6.828125 -2.941406 7.390625 -2.546875 C 7.960938 -2.160156 8.578125 -1.96875 9.234375 -1.96875 Z M 8.015625 -14.828125 C 7.316406 -14.828125 6.738281 -14.394531 6.28125 -13.53125 C 5.832031 -12.664062 5.550781 -11.332031 5.4375 -9.53125 L 10 -9.53125 C 10.039062 -11.0625 9.890625 -12.328125 9.546875 -13.328125 C 9.203125 -14.328125 8.691406 -14.828125 8.015625 -14.828125 Z M 8.015625 -14.828125 "/></g></g></g><g fill="#060606" fill-opacity="1"><g transform="translate(129.213255, 33.570633)"><g><path d="M 6.625 -2.703125 C 6.625 -1.910156 6.757812 -1.363281 7.03125 -1.0625 C 7.300781 -0.757812 7.785156 -0.609375 8.484375 -0.609375 L 8.484375 0 C 6.472656 -0.0703125 5.175781 -0.109375 4.59375 -0.109375 C 3.9375 -0.109375 2.597656 -0.0703125 0.578125 0 L 0.578125 -0.609375 C 1.253906 -0.609375 1.734375 -0.757812 2.015625 -1.0625 C 2.296875 -1.363281 2.4375 -1.910156 2.4375 -2.703125 L 2.4375 -19.265625 C 2.4375 -20.160156 2.296875 -20.8125 2.015625 -21.21875 C 1.734375 -21.625 1.253906 -21.828125 0.578125 -21.828125 L 0.578125 -22.4375 C 1.203125 -22.375 1.804688 -22.34375 2.390625 -22.34375 C 4.066406 -22.34375 5.476562 -22.476562 6.625 -22.75 Z M 6.625 -2.703125 "/></g></g></g><g fill="#060606" fill-opacity="1"><g transform="translate(137.377773, 33.570633)"><g><path d="M 6.625 -2.703125 C 6.625 -1.910156 6.757812 -1.363281 7.03125 -1.0625 C 7.300781 -0.757812 7.785156 -0.609375 8.484375 -0.609375 L 8.484375 0 C 6.472656 -0.0703125 5.175781 -0.109375 4.59375 -0.109375 C 3.9375 -0.109375 2.597656 -0.0703125 0.578125 0 L 0.578125 -0.609375 C 1.253906 -0.609375 1.734375 -0.757812 2.015625 -1.0625 C 2.296875 -1.363281 2.4375 -1.910156 2.4375 -2.703125 L 2.4375 -19.265625 C 2.4375 -20.160156 2.296875 -20.8125 2.015625 -21.21875 C 1.734375 -21.625 1.253906 -21.828125 0.578125 -21.828125 L 0.578125 -22.4375 C 1.203125 -22.375 1.804688 -22.34375 2.390625 -22.34375 C 4.066406 -22.34375 5.476562 -22.476562 6.625 -22.75 Z M 6.625 -2.703125 "/></g></g></g><g fill="#060606" fill-opacity="1"><g transform="translate(145.542294, 33.570633)"><g><path d="M 12.671875 -14.9375 C 13.640625 -14.9375 14.382812 -14.96875 14.90625 -15.03125 L 14.90625 -14.4375 C 14.5 -14.320312 14.132812 -14.078125 13.8125 -13.703125 C 13.5 -13.328125 13.195312 -12.738281 12.90625 -11.9375 L 7.703125 2.671875 C 7.316406 3.679688 6.890625 4.367188 6.421875 4.734375 C 5.859375 5.222656 5.015625 5.46875 3.890625 5.46875 C 3.078125 5.46875 2.347656 5.265625 1.703125 4.859375 C 1.054688 4.460938 0.734375 3.890625 0.734375 3.140625 C 0.734375 2.535156 0.941406 2.050781 1.359375 1.6875 C 1.785156 1.332031 2.347656 1.15625 3.046875 1.15625 C 3.710938 1.15625 4.242188 1.316406 4.640625 1.640625 C 5.035156 1.960938 5.234375 2.414062 5.234375 3 C 5.234375 3.40625 5.101562 3.773438 4.84375 4.109375 C 4.59375 4.453125 4.238281 4.707031 3.78125 4.875 C 3.914062 4.894531 4.140625 4.90625 4.453125 4.90625 C 5.648438 4.90625 6.53125 4.140625 7.09375 2.609375 L 7.5625 1.21875 L 1.390625 -12.78125 C 1.085938 -13.445312 0.789062 -13.882812 0.5 -14.09375 C 0.207031 -14.3125 -0.09375 -14.421875 -0.40625 -14.421875 L -0.40625 -15.03125 C 0.875 -14.90625 2.203125 -14.84375 3.578125 -14.84375 C 4.722656 -14.84375 6.066406 -14.90625 7.609375 -15.03125 L 7.609375 -14.421875 C 6.992188 -14.421875 6.535156 -14.375 6.234375 -14.28125 C 5.929688 -14.195312 5.78125 -13.96875 5.78125 -13.59375 C 5.78125 -13.382812 5.847656 -13.113281 5.984375 -12.78125 L 9.53125 -4.21875 L 11.53125 -9.796875 C 11.84375 -10.703125 12 -11.476562 12 -12.125 C 12 -13.53125 11.285156 -14.300781 9.859375 -14.4375 L 9.859375 -15.03125 C 10.765625 -14.96875 11.703125 -14.9375 12.671875 -14.9375 Z M 12.671875 -14.9375 "/></g></g></g><g fill="#060606" fill-opacity="1"><g transform="translate(159.750454, 33.570633)"><g/></g></g><g fill="#060606" fill-opacity="1"><g transform="translate(165.648617, 33.570633)"><g><path d="M 25.984375 -20 C 25.328125 -19.957031 24.851562 -19.878906 24.5625 -19.765625 C 24.269531 -19.648438 24.066406 -19.425781 23.953125 -19.09375 C 23.847656 -18.757812 23.796875 -18.226562 23.796875 -17.5 L 23.796875 -3.078125 C 23.796875 -2.335938 23.847656 -1.800781 23.953125 -1.46875 C 24.066406 -1.144531 24.269531 -0.925781 24.5625 -0.8125 C 24.863281 -0.695312 25.335938 -0.617188 25.984375 -0.578125 L 25.984375 0 C 24.921875 -0.0625 23.398438 -0.09375 21.421875 -0.09375 C 19.347656 -0.09375 17.816406 -0.0625 16.828125 0 L 16.828125 -0.578125 C 17.523438 -0.617188 18.03125 -0.695312 18.34375 -0.8125 C 18.664062 -0.925781 18.882812 -1.144531 19 -1.46875 C 19.125 -1.800781 19.1875 -2.335938 19.1875 -3.078125 L 19.1875 -18.28125 L 12.171875 0.03125 L 11.71875 0.03125 L 3.859375 -18.6875 L 3.859375 -4.765625 C 3.859375 -3.617188 3.914062 -2.78125 4.03125 -2.25 C 4.15625 -1.71875 4.410156 -1.332031 4.796875 -1.09375 C 5.179688 -0.851562 5.8125 -0.679688 6.6875 -0.578125 L 6.6875 0 C 5.925781 -0.0625 4.878906 -0.09375 3.546875 -0.09375 C 2.484375 -0.09375 1.640625 -0.0625 1.015625 0 L 1.015625 -0.578125 C 1.648438 -0.679688 2.117188 -0.847656 2.421875 -1.078125 C 2.722656 -1.304688 2.925781 -1.671875 3.03125 -2.171875 C 3.144531 -2.679688 3.203125 -3.429688 3.203125 -4.421875 L 3.203125 -17.5 C 3.203125 -18.226562 3.144531 -18.757812 3.03125 -19.09375 C 2.925781 -19.425781 2.722656 -19.648438 2.421875 -19.765625 C 2.117188 -19.878906 1.648438 -19.957031 1.015625 -20 L 1.015625 -20.578125 C 1.640625 -20.515625 2.484375 -20.484375 3.546875 -20.484375 C 5.328125 -20.484375 6.859375 -20.515625 8.140625 -20.578125 L 14.015625 -6.421875 L 19.359375 -20.484375 L 21.421875 -20.484375 C 23.398438 -20.484375 24.921875 -20.515625 25.984375 -20.578125 Z M 25.984375 -20 "/></g></g></g><g fill="#060606" fill-opacity="1"><g transform="translate(191.71159, 33.570633)"><g><path d="M 4.53125 0.203125 C 3.289062 0.203125 2.363281 -0.113281 1.75 -0.75 C 1.144531 -1.394531 0.84375 -2.238281 0.84375 -3.28125 C 0.84375 -4.15625 1.066406 -4.878906 1.515625 -5.453125 C 1.972656 -6.023438 2.523438 -6.460938 3.171875 -6.765625 C 3.828125 -7.078125 4.660156 -7.410156 5.671875 -7.765625 C 6.734375 -8.128906 7.507812 -8.460938 8 -8.765625 C 8.5 -9.066406 8.75 -9.476562 8.75 -10 L 8.75 -12.265625 C 8.75 -13.078125 8.554688 -13.707031 8.171875 -14.15625 C 7.796875 -14.613281 7.210938 -14.84375 6.421875 -14.84375 C 5.492188 -14.84375 4.785156 -14.613281 4.296875 -14.15625 C 4.835938 -13.957031 5.257812 -13.664062 5.5625 -13.28125 C 5.863281 -12.894531 6.015625 -12.441406 6.015625 -11.921875 C 6.015625 -11.253906 5.789062 -10.726562 5.34375 -10.34375 C 4.894531 -9.957031 4.351562 -9.765625 3.71875 -9.765625 C 3.039062 -9.765625 2.515625 -9.976562 2.140625 -10.40625 C 1.773438 -10.832031 1.59375 -11.363281 1.59375 -12 C 1.59375 -12.539062 1.722656 -13 1.984375 -13.375 C 2.253906 -13.757812 2.660156 -14.113281 3.203125 -14.4375 C 3.722656 -14.75 4.363281 -14.992188 5.125 -15.171875 C 5.894531 -15.347656 6.734375 -15.4375 7.640625 -15.4375 C 8.585938 -15.4375 9.410156 -15.335938 10.109375 -15.140625 C 10.804688 -14.941406 11.390625 -14.613281 11.859375 -14.15625 C 12.285156 -13.726562 12.570312 -13.203125 12.71875 -12.578125 C 12.863281 -11.960938 12.9375 -11.125 12.9375 -10.0625 L 12.9375 -2.15625 C 12.9375 -1.6875 12.976562 -1.351562 13.0625 -1.15625 C 13.144531 -0.96875 13.316406 -0.875 13.578125 -0.875 C 13.867188 -0.875 14.21875 -1.035156 14.625 -1.359375 L 14.90625 -0.875 C 14.03125 -0.15625 12.96875 0.203125 11.71875 0.203125 C 10.644531 0.203125 9.894531 -0.0078125 9.46875 -0.4375 C 9.039062 -0.863281 8.820312 -1.4375 8.8125 -2.15625 C 7.84375 -0.582031 6.414062 0.203125 4.53125 0.203125 Z M 6.765625 -1.65625 C 7.523438 -1.65625 8.1875 -2.050781 8.75 -2.84375 L 8.75 -8.8125 C 8.519531 -8.414062 8.023438 -7.988281 7.265625 -7.53125 C 6.503906 -7.039062 5.929688 -6.550781 5.546875 -6.0625 C 5.160156 -5.582031 4.96875 -4.890625 4.96875 -3.984375 C 4.96875 -3.191406 5.128906 -2.601562 5.453125 -2.21875 C 5.785156 -1.84375 6.222656 -1.65625 6.765625 -1.65625 Z M 6.765625 -1.65625 "/></g></g></g><g fill="#060606" fill-opacity="1"><g transform="translate(205.890688, 33.570633)"><g><path d="M 10.6875 -15.4375 C 11.5625 -15.4375 12.222656 -15.171875 12.671875 -14.640625 C 13.117188 -14.117188 13.34375 -13.492188 13.34375 -12.765625 C 13.34375 -12.046875 13.132812 -11.457031 12.71875 -11 C 12.300781 -10.539062 11.753906 -10.3125 11.078125 -10.3125 C 10.410156 -10.3125 9.882812 -10.476562 9.5 -10.8125 C 9.113281 -11.15625 8.921875 -11.609375 8.921875 -12.171875 C 8.921875 -13.109375 9.347656 -13.863281 10.203125 -14.4375 C 10.117188 -14.457031 10.003906 -14.46875 9.859375 -14.46875 C 9.660156 -14.46875 9.503906 -14.453125 9.390625 -14.421875 C 8.648438 -14.296875 8.023438 -13.847656 7.515625 -13.078125 C 7.003906 -12.304688 6.75 -11.507812 6.75 -10.6875 L 6.75 -3 C 6.75 -2.101562 6.960938 -1.476562 7.390625 -1.125 C 7.828125 -0.78125 8.519531 -0.609375 9.46875 -0.609375 L 9.46875 0 C 9.195312 0 8.976562 -0.0078125 8.8125 -0.03125 C 6.832031 -0.0820312 5.515625 -0.109375 4.859375 -0.109375 C 4.328125 -0.109375 3.132812 -0.0820312 1.28125 -0.03125 C 1.125 -0.0078125 0.929688 0 0.703125 0 L 0.703125 -0.609375 C 1.398438 -0.609375 1.882812 -0.757812 2.15625 -1.0625 C 2.425781 -1.363281 2.5625 -1.910156 2.5625 -2.703125 L 2.5625 -11.859375 C 2.5625 -12.742188 2.425781 -13.390625 2.15625 -13.796875 C 1.882812 -14.210938 1.398438 -14.421875 0.703125 -14.421875 L 0.703125 -15.03125 C 1.316406 -14.96875 1.914062 -14.9375 2.5 -14.9375 C 4.226562 -14.9375 5.644531 -15.070312 6.75 -15.34375 L 6.75 -12.640625 C 7.113281 -13.472656 7.644531 -14.144531 8.34375 -14.65625 C 9.039062 -15.175781 9.820312 -15.4375 10.6875 -15.4375 Z M 10.6875 -15.4375 "/></g></g></g><g fill="#060606" fill-opacity="1"><g transform="translate(218.587934, 33.570633)"><g><path d="M 4.484375 -22.53125 C 5.296875 -22.53125 5.9375 -22.328125 6.40625 -21.921875 C 6.882812 -21.523438 7.125 -20.976562 7.125 -20.28125 C 7.125 -19.582031 6.882812 -19.035156 6.40625 -18.640625 C 5.9375 -18.242188 5.296875 -18.046875 4.484375 -18.046875 C 3.671875 -18.046875 3.023438 -18.242188 2.546875 -18.640625 C 2.078125 -19.035156 1.84375 -19.582031 1.84375 -20.28125 C 1.84375 -20.976562 2.078125 -21.523438 2.546875 -21.921875 C 3.023438 -22.328125 3.671875 -22.53125 4.484375 -22.53125 Z M 6.75 -2.703125 C 6.75 -1.910156 6.882812 -1.363281 7.15625 -1.0625 C 7.4375 -0.757812 7.921875 -0.609375 8.609375 -0.609375 L 8.609375 0 C 6.671875 -0.0703125 5.378906 -0.109375 4.734375 -0.109375 C 4.140625 -0.109375 2.796875 -0.0703125 0.703125 0 L 0.703125 -0.609375 C 1.398438 -0.609375 1.882812 -0.757812 2.15625 -1.0625 C 2.425781 -1.363281 2.5625 -1.910156 2.5625 -2.703125 L 2.5625 -11.859375 C 2.5625 -12.742188 2.425781 -13.390625 2.15625 -13.796875 C 1.882812 -14.210938 1.398438 -14.421875 0.703125 -14.421875 L 0.703125 -15.03125 C 1.316406 -14.96875 1.914062 -14.9375 2.5 -14.9375 C 4.226562 -14.9375 5.644531 -15.070312 6.75 -15.34375 Z M 6.75 -2.703125 "/></g></g></g><g fill="#060606" fill-opacity="1"><g transform="translate(226.868682, 33.570633)"><g><path d="M 4.53125 0.203125 C 3.289062 0.203125 2.363281 -0.113281 1.75 -0.75 C 1.144531 -1.394531 0.84375 -2.238281 0.84375 -3.28125 C 0.84375 -4.15625 1.066406 -4.878906 1.515625 -5.453125 C 1.972656 -6.023438 2.523438 -6.460938 3.171875 -6.765625 C 3.828125 -7.078125 4.660156 -7.410156 5.671875 -7.765625 C 6.734375 -8.128906 7.507812 -8.460938 8 -8.765625 C 8.5 -9.066406 8.75 -9.476562 8.75 -10 L 8.75 -12.265625 C 8.75 -13.078125 8.554688 -13.707031 8.171875 -14.15625 C 7.796875 -14.613281 7.210938 -14.84375 6.421875 -14.84375 C 5.492188 -14.84375 4.785156 -14.613281 4.296875 -14.15625 C 4.835938 -13.957031 5.257812 -13.664062 5.5625 -13.28125 C 5.863281 -12.894531 6.015625 -12.441406 6.015625 -11.921875 C 6.015625 -11.253906 5.789062 -10.726562 5.34375 -10.34375 C 4.894531 -9.957031 4.351562 -9.765625 3.71875 -9.765625 C 3.039062 -9.765625 2.515625 -9.976562 2.140625 -10.40625 C 1.773438 -10.832031 1.59375 -11.363281 1.59375 -12 C 1.59375 -12.539062 1.722656 -13 1.984375 -13.375 C 2.253906 -13.757812 2.660156 -14.113281 3.203125 -14.4375 C 3.722656 -14.75 4.363281 -14.992188 5.125 -15.171875 C 5.894531 -15.347656 6.734375 -15.4375 7.640625 -15.4375 C 8.585938 -15.4375 9.410156 -15.335938 10.109375 -15.140625 C 10.804688 -14.941406 11.390625 -14.613281 11.859375 -14.15625 C 12.285156 -13.726562 12.570312 -13.203125 12.71875 -12.578125 C 12.863281 -11.960938 12.9375 -11.125 12.9375 -10.0625 L 12.9375 -2.15625 C 12.9375 -1.6875 12.976562 -1.351562 13.0625 -1.15625 C 13.144531 -0.96875 13.316406 -0.875 13.578125 -0.875 C 13.867188 -0.875 14.21875 -1.035156 14.625 -1.359375 L 14.90625 -0.875 C 14.03125 -0.15625 12.96875 0.203125 11.71875 0.203125 C 10.644531 0.203125 9.894531 -0.0078125 9.46875 -0.4375 C 9.039062 -0.863281 8.820312 -1.4375 8.8125 -2.15625 C 7.84375 -0.582031 6.414062 0.203125 4.53125 0.203125 Z M 6.765625 -1.65625 C 7.523438 -1.65625 8.1875 -2.050781 8.75 -2.84375 L 8.75 -8.8125 C 8.519531 -8.414062 8.023438 -7.988281 7.265625 -7.53125 C 6.503906 -7.039062 5.929688 -6.550781 5.546875 -6.0625 C 5.160156 -5.582031 4.96875 -4.890625 4.96875 -3.984375 C 4.96875 -3.191406 5.128906 -2.601562 5.453125 -2.21875 C 5.785156 -1.84375 6.222656 -1.65625 6.765625 -1.65625 Z M 6.765625 -1.65625 "/></g></g></g><g fill="#060606" fill-opacity="1"><g transform="translate(108.769434, 45.09735)"><g><path d="M 2.1875 -4.78125 C 2.800781 -4.78125 3.351562 -4.617188 3.84375 -4.296875 L 3.515625 -3.59375 C 3.023438 -3.882812 2.5625 -4.03125 2.125 -4.03125 C 1.882812 -4.03125 1.691406 -3.984375 1.546875 -3.890625 C 1.410156 -3.804688 1.34375 -3.6875 1.34375 -3.53125 C 1.34375 -3.375 1.40625 -3.238281 1.53125 -3.125 C 1.664062 -3.019531 1.828125 -2.941406 2.015625 -2.890625 C 2.203125 -2.835938 2.40625 -2.769531 2.625 -2.6875 C 2.851562 -2.601562 3.0625 -2.519531 3.25 -2.4375 C 3.4375 -2.351562 3.59375 -2.21875 3.71875 -2.03125 C 3.84375 -1.84375 3.90625 -1.613281 3.90625 -1.34375 C 3.90625 -0.925781 3.738281 -0.59375 3.40625 -0.34375 C 3.070312 -0.09375 2.640625 0.03125 2.109375 0.03125 C 1.753906 0.03125 1.40625 -0.0351562 1.0625 -0.171875 C 0.726562 -0.304688 0.429688 -0.488281 0.171875 -0.71875 L 0.515625 -1.421875 C 0.753906 -1.191406 1.019531 -1.015625 1.3125 -0.890625 C 1.601562 -0.773438 1.875 -0.71875 2.125 -0.71875 C 2.40625 -0.71875 2.625 -0.769531 2.78125 -0.875 C 2.9375 -0.976562 3.015625 -1.117188 3.015625 -1.296875 C 3.015625 -1.460938 2.953125 -1.597656 2.828125 -1.703125 C 2.703125 -1.816406 2.539062 -1.898438 2.34375 -1.953125 C 2.15625 -2.003906 1.953125 -2.066406 1.734375 -2.140625 C 1.515625 -2.222656 1.304688 -2.304688 1.109375 -2.390625 C 0.921875 -2.472656 0.765625 -2.601562 0.640625 -2.78125 C 0.515625 -2.96875 0.453125 -3.191406 0.453125 -3.453125 C 0.453125 -3.859375 0.609375 -4.179688 0.921875 -4.421875 C 1.242188 -4.660156 1.664062 -4.78125 2.1875 -4.78125 Z M 2.1875 -4.78125 "/></g></g></g><g fill="#060606" fill-opacity="1"><g transform="translate(116.710879, 45.09735)"><g><path d="M 4.65625 -4.75 L 4.65625 -1.96875 C 4.65625 -1.34375 4.472656 -0.851562 4.109375 -0.5 C 3.742188 -0.144531 3.238281 0.03125 2.59375 0.03125 C 1.957031 0.03125 1.453125 -0.144531 1.078125 -0.5 C 0.710938 -0.851562 0.53125 -1.34375 0.53125 -1.96875 L 0.53125 -4.75 L 1.328125 -4.75 L 1.328125 -1.96875 C 1.328125 -1.570312 1.441406 -1.257812 1.671875 -1.03125 C 1.898438 -0.800781 2.210938 -0.6875 2.609375 -0.6875 C 2.992188 -0.6875 3.296875 -0.796875 3.515625 -1.015625 C 3.742188 -1.242188 3.859375 -1.5625 3.859375 -1.96875 L 3.859375 -4.75 Z M 4.65625 -4.75 "/></g></g></g><g fill="#060606" fill-opacity="1"><g transform="translate(125.614126, 45.09735)"><g><path d="M 3.6875 -1.078125 L 1.296875 -1.078125 L 0.84375 0 L 0 0 L 2.109375 -4.75 L 2.921875 -4.75 L 5 0 L 4.140625 0 Z M 3.390625 -1.78125 L 2.484375 -3.890625 L 1.59375 -1.78125 Z M 3.390625 -1.78125 "/></g></g></g><g fill="#060606" fill-opacity="1"><g transform="translate(134.341271, 45.09735)"><g/></g></g><g fill="#060606" fill-opacity="1"><g transform="translate(139.817245, 45.09735)"><g><path d="M 3.640625 0 L 2.765625 -1.4375 C 2.722656 -1.4375 2.648438 -1.4375 2.546875 -1.4375 L 1.421875 -1.4375 L 1.421875 0 L 0.625 0 L 0.625 -4.75 L 2.546875 -4.75 C 3.148438 -4.75 3.617188 -4.609375 3.953125 -4.328125 C 4.296875 -4.046875 4.46875 -3.644531 4.46875 -3.125 C 4.46875 -2.75 4.378906 -2.425781 4.203125 -2.15625 C 4.035156 -1.894531 3.796875 -1.707031 3.484375 -1.59375 L 4.546875 0 Z M 1.421875 -2.15625 L 2.546875 -2.15625 C 3.316406 -2.15625 3.703125 -2.472656 3.703125 -3.109375 C 3.703125 -3.722656 3.316406 -4.03125 2.546875 -4.03125 L 1.421875 -4.03125 Z M 1.421875 -2.15625 "/></g></g></g><g fill="#060606" fill-opacity="1"><g transform="translate(148.442789, 45.09735)"><g><path d="M 0.953125 -4.078125 C 1.441406 -4.535156 2.039062 -4.765625 2.75 -4.765625 C 3.457031 -4.765625 4.050781 -4.535156 4.53125 -4.078125 C 5.019531 -3.617188 5.265625 -3.050781 5.265625 -2.375 C 5.265625 -1.695312 5.019531 -1.125 4.53125 -0.65625 C 4.050781 -0.195312 3.457031 0.03125 2.75 0.03125 C 2.039062 0.03125 1.441406 -0.195312 0.953125 -0.65625 C 0.472656 -1.125 0.234375 -1.695312 0.234375 -2.375 C 0.234375 -3.050781 0.472656 -3.617188 0.953125 -4.078125 Z M 2.75 -4.046875 C 2.28125 -4.046875 1.878906 -3.882812 1.546875 -3.5625 C 1.210938 -3.238281 1.046875 -2.84375 1.046875 -2.375 C 1.046875 -1.90625 1.210938 -1.503906 1.546875 -1.171875 C 1.890625 -0.847656 2.289062 -0.6875 2.75 -0.6875 C 3.21875 -0.6875 3.613281 -0.847656 3.9375 -1.171875 C 4.269531 -1.503906 4.4375 -1.90625 4.4375 -2.375 C 4.4375 -2.84375 4.269531 -3.238281 3.9375 -3.5625 C 3.613281 -3.882812 3.21875 -4.046875 2.75 -4.046875 Z M 2.75 -4.046875 "/></g></g></g><g fill="#060606" fill-opacity="1"><g transform="translate(157.657608, 45.09735)"><g><path d="M 4.65625 -4.75 L 4.65625 -1.96875 C 4.65625 -1.34375 4.472656 -0.851562 4.109375 -0.5 C 3.742188 -0.144531 3.238281 0.03125 2.59375 0.03125 C 1.957031 0.03125 1.453125 -0.144531 1.078125 -0.5 C 0.710938 -0.851562 0.53125 -1.34375 0.53125 -1.96875 L 0.53125 -4.75 L 1.328125 -4.75 L 1.328125 -1.96875 C 1.328125 -1.570312 1.441406 -1.257812 1.671875 -1.03125 C 1.898438 -0.800781 2.210938 -0.6875 2.609375 -0.6875 C 2.992188 -0.6875 3.296875 -0.796875 3.515625 -1.015625 C 3.742188 -1.242188 3.859375 -1.5625 3.859375 -1.96875 L 3.859375 -4.75 Z M 4.65625 -4.75 "/></g></g></g><g fill="#060606" fill-opacity="1"><g transform="translate(166.560854, 45.09735)"><g><path d="M 0.625 -4.75 L 2.515625 -4.75 C 3.109375 -4.75 3.566406 -4.609375 3.890625 -4.328125 C 4.222656 -4.046875 4.390625 -3.644531 4.390625 -3.125 C 4.390625 -2.582031 4.222656 -2.164062 3.890625 -1.875 C 3.566406 -1.582031 3.109375 -1.4375 2.515625 -1.4375 L 1.421875 -1.4375 L 1.421875 0 L 0.625 0 Z M 1.421875 -4.03125 L 1.421875 -2.15625 L 2.484375 -2.15625 C 3.242188 -2.15625 3.625 -2.472656 3.625 -3.109375 C 3.625 -3.722656 3.242188 -4.03125 2.484375 -4.03125 Z M 1.421875 -4.03125 "/></g></g></g><g fill="#060606" fill-opacity="1"><g transform="translate(174.847734, 45.09735)"><g><path d="M 3.6875 -1.078125 L 1.296875 -1.078125 L 0.84375 0 L 0 0 L 2.109375 -4.75 L 2.921875 -4.75 L 5 0 L 4.140625 0 Z M 3.390625 -1.78125 L 2.484375 -3.890625 L 1.59375 -1.78125 Z M 3.390625 -1.78125 "/></g></g></g><g fill="#060606" fill-opacity="1"><g transform="translate(183.574881, 45.09735)"><g/></g></g><g fill="#060606" fill-opacity="1"><g transform="translate(189.050858, 45.09735)"><g><path d="M 2.1875 -4.78125 C 2.800781 -4.78125 3.351562 -4.617188 3.84375 -4.296875 L 3.515625 -3.59375 C 3.023438 -3.882812 2.5625 -4.03125 2.125 -4.03125 C 1.882812 -4.03125 1.691406 -3.984375 1.546875 -3.890625 C 1.410156 -3.804688 1.34375 -3.6875 1.34375 -3.53125 C 1.34375 -3.375 1.40625 -3.238281 1.53125 -3.125 C 1.664062 -3.019531 1.828125 -2.941406 2.015625 -2.890625 C 2.203125 -2.835938 2.40625 -2.769531 2.625 -2.6875 C 2.851562 -2.601562 3.0625 -2.519531 3.25 -2.4375 C 3.4375 -2.351562 3.59375 -2.21875 3.71875 -2.03125 C 3.84375 -1.84375 3.90625 -1.613281 3.90625 -1.34375 C 3.90625 -0.925781 3.738281 -0.59375 3.40625 -0.34375 C 3.070312 -0.09375 2.640625 0.03125 2.109375 0.03125 C 1.753906 0.03125 1.40625 -0.0351562 1.0625 -0.171875 C 0.726562 -0.304688 0.429688 -0.488281 0.171875 -0.71875 L 0.515625 -1.421875 C 0.753906 -1.191406 1.019531 -1.015625 1.3125 -0.890625 C 1.601562 -0.773438 1.875 -0.71875 2.125 -0.71875 C 2.40625 -0.71875 2.625 -0.769531 2.78125 -0.875 C 2.9375 -0.976562 3.015625 -1.117188 3.015625 -1.296875 C 3.015625 -1.460938 2.953125 -1.597656 2.828125 -1.703125 C 2.703125 -1.816406 2.539062 -1.898438 2.34375 -1.953125 C 2.15625 -2.003906 1.953125 -2.066406 1.734375 -2.140625 C 1.515625 -2.222656 1.304688 -2.304688 1.109375 -2.390625 C 0.921875 -2.472656 0.765625 -2.601562 0.640625 -2.78125 C 0.515625 -2.96875 0.453125 -3.191406 0.453125 -3.453125 C 0.453125 -3.859375 0.609375 -4.179688 0.921875 -4.421875 C 1.242188 -4.660156 1.664062 -4.78125 2.1875 -4.78125 Z M 2.1875 -4.78125 "/></g></g></g><g fill="#060606" fill-opacity="1"><g transform="translate(196.992306, 45.09735)"><g><path d="M 4.015625 -4.03125 L 1.421875 -4.03125 L 1.421875 -2.75 L 3.75 -2.75 L 3.75 -2.03125 L 1.421875 -2.03125 L 1.421875 -0.71875 L 4.09375 -0.71875 L 4.09375 0 L 0.625 0 L 0.625 -4.75 L 4.015625 -4.75 Z M 4.015625 -4.03125 "/></g></g></g><g fill="#060606" fill-opacity="1"><g transform="translate(205.164041, 45.09735)"><g><path d="M 4.734375 0 L 3.953125 0 L 1.421875 -3.40625 L 1.421875 0 L 0.625 0 L 0.625 -4.75 L 1.40625 -4.75 L 3.953125 -1.328125 L 3.953125 -4.75 L 4.734375 -4.75 Z M 4.734375 0 "/></g></g></g><g fill="#060606" fill-opacity="1"><g transform="translate(214.256936, 45.09735)"><g><path d="M 0.625 -4.75 L 2.5625 -4.75 C 3.28125 -4.75 3.867188 -4.523438 4.328125 -4.078125 C 4.796875 -3.628906 5.03125 -3.0625 5.03125 -2.375 C 5.03125 -1.6875 4.796875 -1.117188 4.328125 -0.671875 C 3.859375 -0.222656 3.265625 0 2.546875 0 L 0.625 0 Z M 1.421875 -4.03125 L 1.421875 -0.71875 L 2.59375 -0.71875 C 3.050781 -0.71875 3.4375 -0.867188 3.75 -1.171875 C 4.0625 -1.484375 4.21875 -1.878906 4.21875 -2.359375 C 4.21875 -2.835938 4.054688 -3.234375 3.734375 -3.546875 C 3.421875 -3.867188 3.03125 -4.03125 2.5625 -4.03125 Z M 1.421875 -4.03125 "/></g></g></g><g fill="#060606" fill-opacity="1"><g transform="translate(223.234692, 45.09735)"><g><path d="M 0.953125 -4.078125 C 1.441406 -4.535156 2.039062 -4.765625 2.75 -4.765625 C 3.457031 -4.765625 4.050781 -4.535156 4.53125 -4.078125 C 5.019531 -3.617188 5.265625 -3.050781 5.265625 -2.375 C 5.265625 -1.695312 5.019531 -1.125 4.53125 -0.65625 C 4.050781 -0.195312 3.457031 0.03125 2.75 0.03125 C 2.039062 0.03125 1.441406 -0.195312 0.953125 -0.65625 C 0.472656 -1.125 0.234375 -1.695312 0.234375 -2.375 C 0.234375 -3.050781 0.472656 -3.617188 0.953125 -4.078125 Z M 2.75 -4.046875 C 2.28125 -4.046875 1.878906 -3.882812 1.546875 -3.5625 C 1.210938 -3.238281 1.046875 -2.84375 1.046875 -2.375 C 1.046875 -1.90625 1.210938 -1.503906 1.546875 -1.171875 C 1.890625 -0.847656 2.289062 -0.6875 2.75 -0.6875 C 3.21875 -0.6875 3.613281 -0.847656 3.9375 -1.171875 C 4.269531 -1.503906 4.4375 -1.90625 4.4375 -2.375 C 4.4375 -2.84375 4.269531 -3.238281 3.9375 -3.5625 C 3.613281 -3.882812 3.21875 -4.046875 2.75 -4.046875 Z M 2.75 -4.046875 "/></g></g></g><g fill="#060606" fill-opacity="1"><g transform="translate(106.039061, 54.210977)"><g><path d="M 3.65625 -5.921875 L 2.828125 -5.265625 L 2.140625 -5.265625 L 2.859375 -6.265625 Z M 4.65625 -4.75 L 4.65625 -1.96875 C 4.65625 -1.34375 4.472656 -0.851562 4.109375 -0.5 C 3.742188 -0.144531 3.238281 0.03125 2.59375 0.03125 C 1.957031 0.03125 1.453125 -0.144531 1.078125 -0.5 C 0.710938 -0.851562 0.53125 -1.34375 0.53125 -1.96875 L 0.53125 -4.75 L 1.328125 -4.75 L 1.328125 -1.96875 C 1.328125 -1.570312 1.441406 -1.257812 1.671875 -1.03125 C 1.898438 -0.800781 2.210938 -0.6875 2.609375 -0.6875 C 2.992188 -0.6875 3.296875 -0.796875 3.515625 -1.015625 C 3.742188 -1.242188 3.859375 -1.5625 3.859375 -1.96875 L 3.859375 -4.75 Z M 4.65625 -4.75 "/></g></g></g><g fill="#060606" fill-opacity="1"><g transform="translate(114.942307, 54.210977)"><g><path d="M 4.734375 0 L 3.953125 0 L 1.421875 -3.40625 L 1.421875 0 L 0.625 0 L 0.625 -4.75 L 1.40625 -4.75 L 3.953125 -1.328125 L 3.953125 -4.75 L 4.734375 -4.75 Z M 4.734375 0 "/></g></g></g><g fill="#060606" fill-opacity="1"><g transform="translate(124.035206, 54.210977)"><g><path d="M 1.421875 0 L 0.625 0 L 0.625 -4.75 L 1.421875 -4.75 Z M 1.421875 0 "/></g></g></g><g fill="#060606" fill-opacity="1"><g transform="translate(129.809205, 54.210977)"><g><path d="M 2.71875 -4.765625 C 3.0625 -4.765625 3.390625 -4.695312 3.703125 -4.5625 C 4.023438 -4.4375 4.300781 -4.257812 4.53125 -4.03125 L 4.0625 -3.453125 C 3.882812 -3.640625 3.675781 -3.785156 3.4375 -3.890625 C 3.207031 -4.003906 2.972656 -4.0625 2.734375 -4.0625 C 2.265625 -4.0625 1.863281 -3.894531 1.53125 -3.5625 C 1.207031 -3.238281 1.046875 -2.847656 1.046875 -2.390625 C 1.046875 -1.921875 1.207031 -1.523438 1.53125 -1.203125 C 1.863281 -0.878906 2.265625 -0.71875 2.734375 -0.71875 C 3.234375 -0.71875 3.675781 -0.90625 4.0625 -1.28125 L 4.53125 -0.75 C 4.289062 -0.507812 4.003906 -0.316406 3.671875 -0.171875 C 3.347656 -0.0351562 3.023438 0.03125 2.703125 0.03125 C 2.003906 0.03125 1.414062 -0.195312 0.9375 -0.65625 C 0.46875 -1.125 0.234375 -1.695312 0.234375 -2.375 C 0.234375 -3.050781 0.472656 -3.617188 0.953125 -4.078125 C 1.429688 -4.535156 2.019531 -4.765625 2.71875 -4.765625 Z M 2.71875 -4.765625 "/></g></g></g><g fill="#060606" fill-opacity="1"><g transform="translate(138.25864, 54.210977)"><g><path d="M 3.6875 -1.078125 L 1.296875 -1.078125 L 0.84375 0 L 0 0 L 2.109375 -4.75 L 2.921875 -4.75 L 5 0 L 4.140625 0 Z M 3.390625 -1.78125 L 2.484375 -3.890625 L 1.59375 -1.78125 Z M 3.390625 -1.78125 "/></g></g></g><g fill="#060606" fill-opacity="1"><g transform="translate(146.985784, 54.210977)"><g/></g></g><g fill="#060606" fill-opacity="1"><g transform="translate(152.461758, 54.210977)"><g><path d="M 3.6875 -1.078125 L 1.296875 -1.078125 L 0.84375 0 L 0 0 L 2.109375 -4.75 L 2.921875 -4.75 L 5 0 L 4.140625 0 Z M 3.390625 -1.78125 L 2.484375 -3.890625 L 1.59375 -1.78125 Z M 3.390625 -1.78125 "/></g></g></g><g fill="#060606" fill-opacity="1"><g transform="translate(161.188902, 54.210977)"><g><path d="M 2.1875 -4.78125 C 2.800781 -4.78125 3.351562 -4.617188 3.84375 -4.296875 L 3.515625 -3.59375 C 3.023438 -3.882812 2.5625 -4.03125 2.125 -4.03125 C 1.882812 -4.03125 1.691406 -3.984375 1.546875 -3.890625 C 1.410156 -3.804688 1.34375 -3.6875 1.34375 -3.53125 C 1.34375 -3.375 1.40625 -3.238281 1.53125 -3.125 C 1.664062 -3.019531 1.828125 -2.941406 2.015625 -2.890625 C 2.203125 -2.835938 2.40625 -2.769531 2.625 -2.6875 C 2.851562 -2.601562 3.0625 -2.519531 3.25 -2.4375 C 3.4375 -2.351562 3.59375 -2.21875 3.71875 -2.03125 C 3.84375 -1.84375 3.90625 -1.613281 3.90625 -1.34375 C 3.90625 -0.925781 3.738281 -0.59375 3.40625 -0.34375 C 3.070312 -0.09375 2.640625 0.03125 2.109375 0.03125 C 1.753906 0.03125 1.40625 -0.0351562 1.0625 -0.171875 C 0.726562 -0.304688 0.429688 -0.488281 0.171875 -0.71875 L 0.515625 -1.421875 C 0.753906 -1.191406 1.019531 -1.015625 1.3125 -0.890625 C 1.601562 -0.773438 1.875 -0.71875 2.125 -0.71875 C 2.40625 -0.71875 2.625 -0.769531 2.78125 -0.875 C 2.9375 -0.976562 3.015625 -1.117188 3.015625 -1.296875 C 3.015625 -1.460938 2.953125 -1.597656 2.828125 -1.703125 C 2.703125 -1.816406 2.539062 -1.898438 2.34375 -1.953125 C 2.15625 -2.003906 1.953125 -2.066406 1.734375 -2.140625 C 1.515625 -2.222656 1.304688 -2.304688 1.109375 -2.390625 C 0.921875 -2.472656 0.765625 -2.601562 0.640625 -2.78125 C 0.515625 -2.96875 0.453125 -3.191406 0.453125 -3.453125 C 0.453125 -3.859375 0.609375 -4.179688 0.921875 -4.421875 C 1.242188 -4.660156 1.664062 -4.78125 2.1875 -4.78125 Z M 2.1875 -4.78125 "/></g></g></g><g fill="#060606" fill-opacity="1"><g transform="translate(169.130349, 54.210977)"><g><path d="M 2.1875 -4.78125 C 2.800781 -4.78125 3.351562 -4.617188 3.84375 -4.296875 L 3.515625 -3.59375 C 3.023438 -3.882812 2.5625 -4.03125 2.125 -4.03125 C 1.882812 -4.03125 1.691406 -3.984375 1.546875 -3.890625 C 1.410156 -3.804688 1.34375 -3.6875 1.34375 -3.53125 C 1.34375 -3.375 1.40625 -3.238281 1.53125 -3.125 C 1.664062 -3.019531 1.828125 -2.941406 2.015625 -2.890625 C 2.203125 -2.835938 2.40625 -2.769531 2.625 -2.6875 C 2.851562 -2.601562 3.0625 -2.519531 3.25 -2.4375 C 3.4375 -2.351562 3.59375 -2.21875 3.71875 -2.03125 C 3.84375 -1.84375 3.90625 -1.613281 3.90625 -1.34375 C 3.90625 -0.925781 3.738281 -0.59375 3.40625 -0.34375 C 3.070312 -0.09375 2.640625 0.03125 2.109375 0.03125 C 1.753906 0.03125 1.40625 -0.0351562 1.0625 -0.171875 C 0.726562 -0.304688 0.429688 -0.488281 0.171875 -0.71875 L 0.515625 -1.421875 C 0.753906 -1.191406 1.019531 -1.015625 1.3125 -0.890625 C 1.601562 -0.773438 1.875 -0.71875 2.125 -0.71875 C 2.40625 -0.71875 2.625 -0.769531 2.78125 -0.875 C 2.9375 -0.976562 3.015625 -1.117188 3.015625 -1.296875 C 3.015625 -1.460938 2.953125 -1.597656 2.828125 -1.703125 C 2.703125 -1.816406 2.539062 -1.898438 2.34375 -1.953125 C 2.15625 -2.003906 1.953125 -2.066406 1.734375 -2.140625 C 1.515625 -2.222656 1.304688 -2.304688 1.109375 -2.390625 C 0.921875 -2.472656 0.765625 -2.601562 0.640625 -2.78125 C 0.515625 -2.96875 0.453125 -3.191406 0.453125 -3.453125 C 0.453125 -3.859375 0.609375 -4.179688 0.921875 -4.421875 C 1.242188 -4.660156 1.664062 -4.78125 2.1875 -4.78125 Z M 2.1875 -4.78125 "/></g></g></g><g fill="#060606" fill-opacity="1"><g transform="translate(177.071797, 54.210977)"><g><path d="M 1.421875 0 L 0.625 0 L 0.625 -4.75 L 1.421875 -4.75 Z M 1.421875 0 "/></g></g></g><g fill="#060606" fill-opacity="1"><g transform="translate(182.845798, 54.210977)"><g><path d="M 5.640625 0 L 4.90625 0 L 4.890625 -3.546875 L 3.390625 -0.5 L 2.875 -0.5 L 1.375 -3.546875 L 1.375 0 L 0.625 0 L 0.625 -4.75 L 1.578125 -4.75 L 3.140625 -1.59375 L 4.703125 -4.75 L 5.640625 -4.75 Z M 5.640625 0 "/></g></g></g><g fill="#060606" fill-opacity="1"><g transform="translate(192.839542, 54.210977)"><g/></g></g><g fill="#060606" fill-opacity="1"><g transform="translate(198.315519, 54.210977)"><g><path d="M 2.71875 -4.765625 C 3.0625 -4.765625 3.390625 -4.695312 3.703125 -4.5625 C 4.023438 -4.4375 4.300781 -4.257812 4.53125 -4.03125 L 4.0625 -3.453125 C 3.882812 -3.640625 3.675781 -3.785156 3.4375 -3.890625 C 3.207031 -4.003906 2.972656 -4.0625 2.734375 -4.0625 C 2.265625 -4.0625 1.863281 -3.894531 1.53125 -3.5625 C 1.207031 -3.238281 1.046875 -2.847656 1.046875 -2.390625 C 1.046875 -1.921875 1.207031 -1.523438 1.53125 -1.203125 C 1.863281 -0.878906 2.265625 -0.71875 2.734375 -0.71875 C 3.234375 -0.71875 3.675781 -0.90625 4.0625 -1.28125 L 4.53125 -0.75 C 4.289062 -0.507812 4.003906 -0.316406 3.671875 -0.171875 C 3.347656 -0.0351562 3.023438 0.03125 2.703125 0.03125 C 2.003906 0.03125 1.414062 -0.195312 0.9375 -0.65625 C 0.46875 -1.125 0.234375 -1.695312 0.234375 -2.375 C 0.234375 -3.050781 0.472656 -3.617188 0.953125 -4.078125 C 1.429688 -4.535156 2.019531 -4.765625 2.71875 -4.765625 Z M 2.71875 -4.765625 "/></g></g></g><g fill="#060606" fill-opacity="1"><g transform="translate(206.764957, 54.210977)"><g><path d="M 0.953125 -4.078125 C 1.441406 -4.535156 2.039062 -4.765625 2.75 -4.765625 C 3.457031 -4.765625 4.050781 -4.535156 4.53125 -4.078125 C 5.019531 -3.617188 5.265625 -3.050781 5.265625 -2.375 C 5.265625 -1.695312 5.019531 -1.125 4.53125 -0.65625 C 4.050781 -0.195312 3.457031 0.03125 2.75 0.03125 C 2.039062 0.03125 1.441406 -0.195312 0.953125 -0.65625 C 0.472656 -1.125 0.234375 -1.695312 0.234375 -2.375 C 0.234375 -3.050781 0.472656 -3.617188 0.953125 -4.078125 Z M 2.75 -4.046875 C 2.28125 -4.046875 1.878906 -3.882812 1.546875 -3.5625 C 1.210938 -3.238281 1.046875 -2.84375 1.046875 -2.375 C 1.046875 -1.90625 1.210938 -1.503906 1.546875 -1.171875 C 1.890625 -0.847656 2.289062 -0.6875 2.75 -0.6875 C 3.21875 -0.6875 3.613281 -0.847656 3.9375 -1.171875 C 4.269531 -1.503906 4.4375 -1.90625 4.4375 -2.375 C 4.4375 -2.84375 4.269531 -3.238281 3.9375 -3.5625 C 3.613281 -3.882812 3.21875 -4.046875 2.75 -4.046875 Z M 2.75 -4.046875 "/></g></g></g><g fill="#060606" fill-opacity="1"><g transform="translate(215.97978, 54.210977)"><g><path d="M 5.640625 0 L 4.90625 0 L 4.890625 -3.546875 L 3.390625 -0.5 L 2.875 -0.5 L 1.375 -3.546875 L 1.375 0 L 0.625 0 L 0.625 -4.75 L 1.578125 -4.75 L 3.140625 -1.59375 L 4.703125 -4.75 L 5.640625 -4.75 Z M 5.640625 0 "/></g></g></g><g fill="#060606" fill-opacity="1"><g transform="translate(225.973517, 54.210977)"><g><path d="M 0.953125 -4.078125 C 1.441406 -4.535156 2.039062 -4.765625 2.75 -4.765625 C 3.457031 -4.765625 4.050781 -4.535156 4.53125 -4.078125 C 5.019531 -3.617188 5.265625 -3.050781 5.265625 -2.375 C 5.265625 -1.695312 5.019531 -1.125 4.53125 -0.65625 C 4.050781 -0.195312 3.457031 0.03125 2.75 0.03125 C 2.039062 0.03125 1.441406 -0.195312 0.953125 -0.65625 C 0.472656 -1.125 0.234375 -1.695312 0.234375 -2.375 C 0.234375 -3.050781 0.472656 -3.617188 0.953125 -4.078125 Z M 2.75 -4.046875 C 2.28125 -4.046875 1.878906 -3.882812 1.546875 -3.5625 C 1.210938 -3.238281 1.046875 -2.84375 1.046875 -2.375 C 1.046875 -1.90625 1.210938 -1.503906 1.546875 -1.171875 C 1.890625 -0.847656 2.289062 -0.6875 2.75 -0.6875 C 3.21875 -0.6875 3.613281 -0.847656 3.9375 -1.171875 C 4.269531 -1.503906 4.4375 -1.90625 4.4375 -2.375 C 4.4375 -2.84375 4.269531 -3.238281 3.9375 -3.5625 C 3.613281 -3.882812 3.21875 -4.046875 2.75 -4.046875 Z M 2.75 -4.046875 "/></g></g></g><g fill="#060606" fill-opacity="1"><g transform="translate(150.752793, 63.324604)"><g><path d="M 2.734375 0 L 1.90625 0 L 0.015625 -4.75 L 0.875 -4.75 L 2.34375 -0.890625 L 3.828125 -4.75 L 4.65625 -4.75 Z M 2.734375 0 "/></g></g></g><g fill="#060606" fill-opacity="1"><g transform="translate(159.15482, 63.324604)"><g><path d="M 0.953125 -4.078125 C 1.441406 -4.535156 2.039062 -4.765625 2.75 -4.765625 C 3.457031 -4.765625 4.050781 -4.535156 4.53125 -4.078125 C 5.019531 -3.617188 5.265625 -3.050781 5.265625 -2.375 C 5.265625 -1.695312 5.019531 -1.125 4.53125 -0.65625 C 4.050781 -0.195312 3.457031 0.03125 2.75 0.03125 C 2.039062 0.03125 1.441406 -0.195312 0.953125 -0.65625 C 0.472656 -1.125 0.234375 -1.695312 0.234375 -2.375 C 0.234375 -3.050781 0.472656 -3.617188 0.953125 -4.078125 Z M 2.75 -4.046875 C 2.28125 -4.046875 1.878906 -3.882812 1.546875 -3.5625 C 1.210938 -3.238281 1.046875 -2.84375 1.046875 -2.375 C 1.046875 -1.90625 1.210938 -1.503906 1.546875 -1.171875 C 1.890625 -0.847656 2.289062 -0.6875 2.75 -0.6875 C 3.21875 -0.6875 3.613281 -0.847656 3.9375 -1.171875 C 4.269531 -1.503906 4.4375 -1.90625 4.4375 -2.375 C 4.4375 -2.84375 4.269531 -3.238281 3.9375 -3.5625 C 3.613281 -3.882812 3.21875 -4.046875 2.75 -4.046875 Z M 2.75 -4.046875 "/></g></g></g><g fill="#060606" fill-opacity="1"><g transform="translate(168.369641, 63.324604)"><g><path d="M 2.71875 -4.765625 C 3.0625 -4.765625 3.390625 -4.695312 3.703125 -4.5625 C 4.023438 -4.4375 4.300781 -4.257812 4.53125 -4.03125 L 4.0625 -3.453125 C 3.882812 -3.640625 3.675781 -3.785156 3.4375 -3.890625 C 3.207031 -4.003906 2.972656 -4.0625 2.734375 -4.0625 C 2.265625 -4.0625 1.863281 -3.894531 1.53125 -3.5625 C 1.207031 -3.238281 1.046875 -2.847656 1.046875 -2.390625 C 1.046875 -1.921875 1.207031 -1.523438 1.53125 -1.203125 C 1.863281 -0.878906 2.265625 -0.71875 2.734375 -0.71875 C 3.234375 -0.71875 3.675781 -0.90625 4.0625 -1.28125 L 4.53125 -0.75 C 4.289062 -0.507812 4.003906 -0.316406 3.671875 -0.171875 C 3.347656 -0.0351562 3.023438 0.03125 2.703125 0.03125 C 2.003906 0.03125 1.414062 -0.195312 0.9375 -0.65625 C 0.46875 -1.125 0.234375 -1.695312 0.234375 -2.375 C 0.234375 -3.050781 0.472656 -3.617188 0.953125 -4.078125 C 1.429688 -4.535156 2.019531 -4.765625 2.71875 -4.765625 Z M 2.71875 -4.765625 "/></g></g></g><g fill="#060606" fill-opacity="1"><g transform="translate(176.819078, 63.324604)"><g><path d="M 3.390625 -5.28125 L 2.75 -5.28125 L 2.328125 -5.875 L 1.90625 -5.28125 L 1.28125 -5.28125 L 1.96875 -6.234375 L 2.6875 -6.234375 Z M 4.015625 -4.03125 L 1.421875 -4.03125 L 1.421875 -2.75 L 3.75 -2.75 L 3.75 -2.03125 L 1.421875 -2.03125 L 1.421875 -0.71875 L 4.09375 -0.71875 L 4.09375 0 L 0.625 0 L 0.625 -4.75 L 4.015625 -4.75 Z M 4.015625 -4.03125 "/></g></g></g><g fill="#060606" fill-opacity="1"><g transform="translate(184.990807, 63.324604)"><g/></g></g><g clip-path="url(#45bd832417)"><path stroke-linecap="butt" transform="matrix(0.75, 0, 0, 0.75, 0.75, 1.555471)" fill="none" stroke-linejoin="miter" d="M 0.000000115039 0.498956 L 448.000052 0.498956 " stroke="#000000" stroke-width="1" stroke-opacity="1" stroke-miterlimit="4"/></g><path stroke-linecap="butt" transform="matrix(0.749707, 0, 0, 0.75, 1.5, 72.430466)" fill="none" stroke-linejoin="miter" d="M 0.000000262134 0.498963 L 80.036474 0.498963 " stroke="#000000" stroke-width="1" stroke-opacity="1" stroke-miterlimit="4"/><path stroke-linecap="butt" transform="matrix(0.000000000000000046, 0.753968, -0.75, 0.000000000000000046, 1.5, 2.305471)" fill="none" stroke-linejoin="miter" d="M -0.00103872 0.5 L 94.498972 0.5 " stroke="#000000" stroke-width="1" stroke-opacity="1" stroke-miterlimit="4"/><path stroke-linecap="butt" transform="matrix(0.000000000000000046, 0.753968, -0.75, 0.000000000000000046, 336.749964, 2.305471)" fill="none" stroke-linejoin="miter" d="M -0.00103872 0.499951 L 94.498972 0.499951 " stroke="#000000" stroke-width="1" stroke-opacity="1" stroke-miterlimit="4"/><path stroke-linecap="butt" transform="matrix(0.747634, 0, 0, 0.75, 276.931605, 72.430466)" fill="none" stroke-linejoin="miter" d="M -0.00256476 0.498963 L 79.257895 0.498963 " stroke="#000000" stroke-width="1" stroke-opacity="1" stroke-miterlimit="4"/></svg>